{"glyphs":{"0":{"ha":753,"x_min":49,"x_max":703,"o":"m 49 471 q 137 831 49 705 q 376 958 224 958 q 618 827 534 958 q 703 471 703 695 q 616 112 703 239 q 376 -15 528 -15 q 133 117 218 -15 q 49 471 49 250 m 187 471 q 236 182 187 269 q 376 95 285 95 q 517 182 468 95 q 566 471 566 270 q 516 762 566 676 q 376 848 467 848 q 231 750 275 848 q 187 471 187 652 z "},"1":{"ha":753,"x_min":200,"x_max":581,"o":"m 329 115 l 329 829 l 200 829 l 200 942 l 458 942 l 458 115 l 581 115 l 581 0 l 200 0 l 200 115 l 329 115 z "},"2":{"ha":753,"x_min":56,"x_max":667,"o":"m 667 337 l 659 0 l 56 0 q 91 186 56 98 q 189 342 125 275 q 382 503 252 408 q 494 604 465 564 q 523 698 523 644 q 481 805 523 764 q 368 847 440 847 q 243 800 283 847 q 204 644 204 752 q 205 592 204 616 l 80 592 q 79 632 79 616 q 152 872 79 785 q 365 958 224 958 q 582 884 507 958 q 658 703 658 810 q 608 549 658 612 q 419 387 559 485 q 241 230 283 290 q 192 123 199 170 l 547 123 l 553 337 l 667 337 z "},"3":{"ha":753,"x_min":46,"x_max":695,"o":"m 284 434 l 284 551 q 428 562 383 551 q 498 608 473 574 q 524 694 524 642 q 487 803 524 758 q 377 848 450 848 q 260 801 297 848 q 220 658 224 753 l 90 658 q 170 889 90 821 q 367 958 250 958 q 581 888 509 958 q 652 710 652 819 q 611 575 652 630 q 519 497 570 520 q 695 272 695 445 q 598 57 695 128 q 372 -15 502 -15 q 126 74 205 -15 q 46 319 46 163 l 171 319 q 230 154 174 211 q 379 96 286 96 q 512 143 464 96 q 561 262 561 191 q 504 386 561 338 q 322 435 447 435 q 284 434 306 435 z "},"4":{"ha":753,"x_min":41,"x_max":693,"o":"m 418 254 l 101 254 q 41 360 85 317 l 433 951 l 543 951 l 543 368 l 693 368 l 693 254 l 543 254 l 543 115 l 629 115 l 629 0 l 318 0 l 318 115 l 418 115 l 418 254 m 418 368 l 418 739 l 171 368 l 418 368 z "},"5":{"ha":753,"x_min":50,"x_max":691,"o":"m 50 301 l 172 301 q 234 150 182 206 q 369 94 285 94 q 505 152 454 94 q 557 302 557 210 q 507 450 557 399 q 382 501 456 501 q 193 388 270 501 q 94 456 149 431 l 133 942 l 636 942 l 636 692 l 519 692 l 519 821 l 231 821 l 210 545 q 401 614 296 614 q 613 525 536 614 q 691 303 691 435 q 606 74 691 163 q 368 -15 521 -15 q 142 66 225 -15 q 50 301 60 146 z "},"6":{"ha":753,"x_min":68,"x_max":675,"o":"m 669 665 l 554 665 q 497 796 544 745 q 385 847 451 847 q 244 753 294 847 q 192 496 194 659 q 414 600 288 600 q 598 520 522 600 q 675 307 675 441 q 600 80 675 174 q 392 -15 524 -15 q 156 106 245 -15 q 68 466 68 227 q 153 826 68 693 q 399 958 239 958 q 595 875 526 958 q 669 665 665 792 m 199 353 q 386 97 229 97 q 511 156 466 97 q 555 297 555 215 q 513 427 555 378 q 399 477 471 477 q 199 353 298 477 z "},"7":{"ha":753,"x_min":82,"x_max":671,"o":"m 151 0 l 151 115 l 277 115 q 361 496 287 297 q 524 821 436 696 l 199 821 l 199 694 l 82 694 l 82 942 l 671 942 l 671 846 q 496 510 579 735 q 414 115 414 286 l 524 115 l 524 0 l 151 0 z "},"8":{"ha":753,"x_min":46,"x_max":705,"o":"m 214 493 q 75 711 75 574 q 161 895 75 831 q 368 958 248 958 q 593 892 511 958 q 676 711 676 825 q 538 493 676 575 q 705 260 705 427 q 618 60 705 135 q 383 -15 531 -15 q 132 60 217 -15 q 46 260 46 135 q 214 493 46 427 m 203 699 q 250 585 203 624 q 380 546 298 546 q 499 584 450 546 q 549 699 549 621 q 372 846 549 846 q 249 808 295 846 q 203 699 203 770 m 183 265 q 235 143 183 191 q 376 95 286 95 q 514 141 460 95 q 568 266 568 187 q 518 389 568 341 q 372 436 467 436 q 236 391 289 436 q 183 265 183 345 z "},"9":{"ha":753,"x_min":64,"x_max":671,"o":"m 71 279 l 185 279 q 242 147 195 198 q 355 96 289 96 q 496 191 446 96 q 547 448 546 285 q 326 343 452 343 q 139 424 214 343 q 64 636 64 505 q 140 864 64 769 q 348 958 216 958 q 583 837 495 958 q 671 477 671 716 q 586 118 671 250 q 340 -15 501 -15 q 144 68 214 -15 q 71 279 75 151 m 541 590 q 353 846 511 846 q 230 788 275 846 q 184 646 184 730 q 224 518 184 570 q 341 467 264 467 q 541 590 441 467 z "}," ":{"ha":347,"x_min":0,"x_max":0,"o":""},"!":{"ha":406,"x_min":119,"x_max":286,"o":"m 237 256 l 168 256 l 134 656 l 134 943 l 271 943 l 271 656 l 237 256 m 119 0 l 119 167 l 286 167 l 286 0 l 119 0 z "},"\"":{"ha":564,"x_min":90,"x_max":474,"o":"m 142 562 l 104 763 q 90 875 90 845 q 155 958 90 958 q 205 938 185 958 q 225 886 225 918 q 208 762 225 857 l 171 562 l 142 562 m 390 562 l 353 760 q 337 876 337 846 q 406 958 337 958 q 455 938 437 958 q 474 886 474 917 q 461 760 474 827 l 422 562 l 390 562 z "},"#":{"ha":926,"x_min":58,"x_max":868,"o":"m 374 691 l 643 691 l 698 956 l 798 956 l 743 691 l 868 691 l 868 591 l 722 591 l 672 352 l 868 352 l 868 252 l 651 252 l 596 -13 l 496 -13 l 551 252 l 283 252 l 228 -13 l 128 -13 l 183 252 l 58 252 l 58 352 l 204 352 l 254 591 l 58 591 l 58 691 l 275 691 l 330 956 l 429 956 l 374 691 m 353 591 l 304 352 l 572 352 l 622 591 l 353 591 z "},"$":{"ha":753,"x_min":43,"x_max":694,"o":"m 319 -14 q 118 72 193 -8 q 43 266 43 151 q 43 285 43 272 l 167 285 q 319 96 177 115 l 319 408 q 61 670 61 459 q 130 854 61 783 q 319 937 199 926 l 319 979 l 422 979 l 422 937 q 582 867 511 928 q 652 654 652 807 l 652 638 l 532 638 q 507 767 532 725 q 422 823 481 810 l 422 522 q 640 428 585 492 q 694 268 694 365 q 623 72 694 144 q 422 -14 552 0 l 422 -119 l 319 -119 l 319 -14 m 319 545 l 319 829 q 197 690 197 807 q 319 545 197 578 m 422 387 l 422 98 q 564 249 564 124 q 536 334 564 300 q 422 387 509 369 z "},"%":{"ha":1346,"x_min":111,"x_max":1234,"o":"m 111 705 q 162 888 111 819 q 313 958 213 958 q 460 892 406 958 q 514 705 514 827 q 462 522 514 590 q 313 453 410 453 q 165 518 220 453 q 111 705 111 584 m 209 706 q 313 518 209 518 q 416 705 416 518 q 313 893 416 893 q 209 706 209 893 m 249 0 l 998 943 l 1094 943 l 351 0 l 249 0 m 831 238 q 886 425 831 360 q 1032 490 941 490 q 1183 420 1133 490 q 1234 238 1234 350 q 1179 51 1234 116 q 1033 -15 1125 -15 q 886 51 940 -15 q 831 238 831 116 m 929 238 q 1032 50 929 50 q 1136 237 1136 50 q 1033 425 1136 425 q 929 238 929 425 z "},"&":{"ha":940,"x_min":43,"x_max":909,"o":"m 715 499 l 909 499 l 909 384 l 809 384 q 715 182 772 253 l 765 118 l 909 118 l 909 0 l 694 0 l 631 83 q 380 -15 509 -15 q 138 76 234 -15 q 43 303 43 167 q 258 586 43 492 q 193 751 193 668 q 262 900 193 842 q 422 958 331 958 q 583 900 517 958 q 648 756 648 842 q 602 633 648 681 q 450 541 556 585 l 642 281 q 715 499 694 372 m 382 631 q 493 694 464 665 q 523 760 523 724 q 498 820 523 793 q 425 847 473 847 q 354 821 382 847 q 326 754 326 795 q 374 643 326 718 l 382 631 m 330 499 q 183 309 183 434 q 245 164 183 227 q 395 102 307 102 q 559 178 485 102 l 330 499 z "},"'":{"ha":245,"x_min":55,"x_max":191,"o":"m 107 562 l 71 762 q 55 871 55 846 q 121 958 55 958 q 172 937 153 958 q 191 886 191 916 q 174 762 191 859 l 137 562 l 107 562 z "},"(":{"ha":521,"x_min":113,"x_max":482,"o":"m 482 960 l 482 855 q 350 734 409 817 q 270 561 290 652 q 250 329 250 470 q 276 76 250 170 q 358 -86 302 -18 q 482 -196 414 -155 l 482 -302 q 227 -82 341 -244 q 113 330 113 79 q 213 721 113 553 q 482 960 313 888 z "},")":{"ha":521,"x_min":39,"x_max":408,"o":"m 39 960 q 306 726 203 887 q 408 330 408 564 q 313 -54 408 103 q 39 -302 218 -212 l 39 -196 q 177 -67 123 -145 q 251 101 232 11 q 271 329 271 191 q 249 567 271 475 q 167 739 228 659 q 39 855 106 819 l 39 960 z "},"*":{"ha":724,"x_min":45,"x_max":676,"o":"m 422 958 l 422 844 q 380 676 381 760 q 526 768 471 709 l 639 804 l 676 684 l 565 647 q 524 651 543 651 q 399 636 450 651 q 526 529 463 555 l 594 434 l 494 361 l 422 457 q 361 614 413 543 q 300 457 309 543 l 228 361 l 127 434 l 196 529 q 323 636 258 555 q 198 651 271 651 q 157 647 180 651 l 45 684 l 83 804 l 196 768 q 342 676 251 709 q 300 844 340 760 l 300 958 l 422 958 z "},"+":{"ha":926,"x_min":92,"x_max":835,"o":"m 92 525 l 410 525 l 410 843 l 516 843 l 516 525 l 835 525 l 835 418 l 516 418 l 516 100 l 410 100 l 410 418 l 92 418 l 92 525 z "},",":{"ha":406,"x_min":119,"x_max":286,"o":"m 119 0 l 119 167 l 286 167 l 286 22 q 275 -93 286 -52 q 225 -160 263 -134 q 119 -188 188 -186 l 119 -117 q 201 -16 201 -105 q 200 0 201 -11 l 119 0 z "},"-":{"ha":492,"x_min":43,"x_max":450,"o":"m 43 390 l 450 390 l 450 261 l 43 261 l 43 390 z "},".":{"ha":406,"x_min":119,"x_max":286,"o":"m 119 0 l 119 167 l 286 167 l 286 0 l 119 0 z "},"/":{"ha":608,"x_min":7,"x_max":601,"o":"m 488 962 l 601 962 l 119 -15 l 7 -15 l 488 962 z "},":":{"ha":406,"x_min":119,"x_max":286,"o":"m 119 490 l 119 656 l 286 656 l 286 490 l 119 490 m 119 0 l 119 167 l 286 167 l 286 0 l 119 0 z "},";":{"ha":406,"x_min":119,"x_max":286,"o":"m 119 490 l 119 656 l 286 656 l 286 490 l 119 490 m 119 0 l 119 167 l 286 167 l 286 22 q 275 -93 286 -52 q 225 -160 263 -134 q 119 -188 188 -186 l 119 -117 q 201 -16 201 -105 q 200 0 201 -11 l 119 0 z "},"<":{"ha":926,"x_min":92,"x_max":835,"o":"m 835 112 l 92 424 l 92 519 l 835 831 l 835 716 l 237 471 l 835 227 l 835 112 z "},"=":{"ha":926,"x_min":92,"x_max":835,"o":"m 92 684 l 835 684 l 835 578 l 92 578 l 92 684 m 92 366 l 835 366 l 835 259 l 92 259 l 92 366 z "},">":{"ha":926,"x_min":92,"x_max":835,"o":"m 92 831 l 835 519 l 835 424 l 92 112 l 92 227 l 690 471 l 92 716 l 92 831 z "},"?":{"ha":652,"x_min":42,"x_max":608,"o":"m 330 254 l 260 254 l 243 554 q 307 546 275 546 q 435 591 396 546 q 475 697 475 635 q 432 809 475 769 q 325 848 390 848 q 207 803 245 848 q 169 690 169 758 q 170 656 169 675 l 43 656 q 42 688 42 675 q 124 892 42 827 q 321 958 207 958 q 533 885 458 958 q 608 691 608 811 q 537 506 608 575 q 368 437 465 437 q 347 437 361 437 l 330 254 m 211 0 l 211 167 l 377 167 l 377 0 l 211 0 z "},"@":{"ha":1402,"x_min":77,"x_max":1362,"o":"m 789 94 q 581 -19 691 -19 q 409 65 481 -19 q 336 285 336 149 q 444 582 336 446 q 688 718 551 718 q 892 593 817 718 l 916 699 l 1037 699 l 939 243 q 919 138 919 149 q 934 105 919 118 q 965 93 949 93 q 1067 139 1001 93 q 1181 275 1133 184 q 1228 469 1228 366 q 1088 775 1228 654 q 743 897 948 897 q 335 727 492 897 q 178 313 178 557 q 334 -74 178 61 q 762 -209 490 -209 q 1046 -155 921 -209 q 1239 -4 1171 -102 l 1362 -4 q 1152 -215 1305 -121 q 764 -309 998 -309 q 256 -143 435 -309 q 77 300 77 24 q 254 787 77 578 q 749 995 430 995 q 1169 841 1010 995 q 1329 466 1329 686 q 1201 129 1329 278 q 920 -20 1074 -20 q 823 8 852 -20 q 789 94 795 36 m 461 273 q 504 135 461 189 q 606 81 547 81 q 776 185 699 81 q 854 423 854 288 q 809 565 854 513 q 696 617 764 617 q 527 504 593 617 q 461 273 461 391 z "},"A":{"ha":970,"x_min":-11,"x_max":981,"o":"m 658 332 l 319 332 l 246 118 l 361 118 l 361 0 l -11 0 l -11 118 l 103 118 l 361 837 l 246 837 l 246 943 l 728 943 l 728 837 l 611 837 l 875 118 l 981 118 l 981 0 l 611 0 l 611 118 l 728 118 l 658 332 m 623 442 l 497 837 l 484 837 l 354 442 l 623 442 z "},"B":{"ha":810,"x_min":31,"x_max":751,"o":"m 147 118 l 147 825 l 31 825 l 31 943 l 345 943 q 539 928 475 943 q 654 849 604 912 q 703 700 703 785 q 674 581 703 634 q 587 501 644 528 q 708 411 666 474 q 751 268 751 349 q 719 141 751 198 q 635 53 688 84 q 521 11 583 22 q 352 0 459 0 l 31 0 l 31 118 l 147 118 m 290 551 l 378 551 q 520 586 480 551 q 561 691 561 622 q 378 825 561 825 l 290 825 l 290 551 m 290 118 l 343 118 q 497 129 448 118 q 577 178 546 139 q 608 278 608 217 q 578 371 608 334 q 502 421 549 409 q 371 434 456 434 l 290 434 l 290 118 z "},"C":{"ha":1055,"x_min":59,"x_max":989,"o":"m 866 384 l 989 315 q 822 72 947 158 q 532 -15 696 -15 q 189 124 318 -15 q 59 468 59 263 q 189 825 59 692 q 529 958 319 958 q 840 857 714 958 l 840 943 l 962 943 l 962 640 l 840 640 q 715 783 800 732 q 536 833 630 833 q 305 732 395 833 q 214 475 214 630 q 311 214 214 315 q 541 113 408 113 q 740 183 650 113 q 866 384 829 254 z "},"D":{"ha":1013,"x_min":18,"x_max":942,"o":"m 146 118 l 146 825 l 18 825 l 18 943 l 382 943 q 615 928 534 943 q 774 857 697 912 q 896 706 850 802 q 942 488 942 610 q 898 245 942 348 q 782 91 854 142 q 612 20 711 40 q 361 0 513 0 l 18 0 l 18 118 l 146 118 m 288 118 l 363 118 q 561 134 488 118 q 684 187 633 149 q 765 300 734 224 q 796 479 796 376 q 745 688 796 602 q 614 799 694 773 q 369 825 534 825 l 288 825 l 288 118 z "},"E":{"ha":868,"x_min":38,"x_max":822,"o":"m 160 118 l 160 825 l 38 825 l 38 943 l 822 943 l 822 659 l 705 659 l 705 825 l 302 825 l 302 545 l 653 545 l 653 427 l 302 427 l 302 118 l 705 118 l 705 290 l 822 290 l 822 0 l 38 0 l 38 118 l 160 118 z "},"F":{"ha":766,"x_min":25,"x_max":757,"o":"m 144 118 l 144 825 l 25 825 l 25 943 l 757 943 l 757 659 l 640 659 l 640 825 l 287 825 l 287 546 l 591 546 l 591 428 l 287 428 l 287 118 l 408 118 l 408 0 l 25 0 l 25 118 l 144 118 z "},"G":{"ha":1114,"x_min":67,"x_max":1048,"o":"m 704 455 l 1047 455 q 1048 422 1048 437 q 918 104 1048 224 q 574 -15 787 -15 q 193 131 318 -15 q 67 475 67 276 q 195 821 67 683 q 543 958 323 958 q 874 838 741 958 l 874 943 l 994 943 l 994 633 l 874 633 q 754 772 840 711 q 556 833 667 833 q 312 728 401 833 q 222 477 222 624 q 325 209 222 308 q 570 110 427 110 q 771 173 683 110 q 874 337 859 235 l 704 337 l 704 455 z "},"H":{"ha":983,"x_min":37,"x_max":947,"o":"m 144 118 l 144 825 l 37 825 l 37 943 l 398 943 l 398 825 l 287 825 l 287 555 l 697 555 l 697 825 l 587 825 l 587 943 l 947 943 l 947 825 l 840 825 l 840 118 l 947 118 l 947 0 l 587 0 l 587 118 l 697 118 l 697 437 l 287 437 l 287 118 l 398 118 l 398 0 l 37 0 l 37 118 l 144 118 z "},"I":{"ha":435,"x_min":43,"x_max":391,"o":"m 146 118 l 146 825 l 43 825 l 43 943 l 391 943 l 391 825 l 288 825 l 288 118 l 391 118 l 391 0 l 43 0 l 43 118 l 146 118 z "},"J":{"ha":435,"x_min":-49,"x_max":417,"o":"m -49 -280 l -49 -148 q 53 -161 4 -161 q 134 -128 114 -161 q 154 7 154 -94 l 154 825 l 33 825 l 33 943 l 417 943 l 417 825 l 296 825 l 296 0 q 280 -162 296 -106 q 204 -256 264 -217 q 60 -296 143 -296 q -49 -280 2 -296 z "},"K":{"ha":868,"x_min":25,"x_max":863,"o":"m 143 118 l 143 825 l 25 825 l 25 943 l 407 943 l 407 825 l 286 825 l 286 118 l 394 118 l 394 0 l 25 0 l 25 118 l 143 118 m 290 498 l 593 825 l 485 825 l 485 943 l 854 943 l 854 825 l 754 825 l 464 498 l 762 118 l 863 118 l 863 0 l 480 0 l 480 118 l 582 118 l 290 498 z "},"L":{"ha":724,"x_min":20,"x_max":711,"o":"m 142 118 l 142 825 l 20 825 l 20 943 l 406 943 l 406 825 l 290 825 l 290 118 l 578 118 l 578 439 l 711 439 l 711 0 l 20 0 l 20 118 l 142 118 z "},"M":{"ha":1215,"x_min":34,"x_max":1182,"o":"m 147 118 l 147 825 l 34 825 l 34 943 l 357 943 l 605 297 l 856 943 l 1182 943 l 1182 825 l 1068 825 l 1068 118 l 1182 118 l 1182 0 l 827 0 l 827 118 l 939 118 l 939 825 l 614 -9 l 586 -9 l 264 825 l 264 118 l 368 118 l 368 0 l 34 0 l 34 118 l 147 118 z "},"N":{"ha":999,"x_min":7,"x_max":996,"o":"m 142 118 l 142 825 l 7 825 l 7 943 l 329 943 l 743 210 l 743 825 l 609 825 l 609 943 l 996 943 l 996 825 l 857 825 l 857 -9 l 711 -9 l 258 795 l 258 118 l 393 118 l 393 0 l 7 0 l 7 118 l 142 118 z "},"O":{"ha":1114,"x_min":69,"x_max":1045,"o":"m 69 476 q 203 820 69 682 q 553 958 338 958 q 908 820 771 958 q 1045 473 1045 682 q 906 123 1045 261 q 551 -15 766 -15 q 299 51 414 -15 q 127 233 184 116 q 69 476 69 350 m 224 475 q 315 215 224 320 q 554 110 406 110 q 795 217 701 110 q 889 474 889 325 q 793 729 889 625 q 552 833 697 833 q 316 730 408 833 q 224 475 224 628 z "},"P":{"ha":796,"x_min":28,"x_max":761,"o":"m 146 118 l 146 825 l 28 825 l 28 943 l 365 943 q 587 922 513 943 q 711 827 661 901 q 761 652 761 753 q 728 507 761 571 q 647 412 695 443 q 537 371 598 382 q 354 361 477 361 l 289 361 l 289 118 l 411 118 l 411 0 l 28 0 l 28 118 l 146 118 m 289 475 l 370 475 q 563 514 509 475 q 616 654 616 554 q 588 760 616 718 q 517 814 559 802 q 377 825 475 825 l 289 825 l 289 475 z "},"Q":{"ha":1114,"x_min":69,"x_max":1044,"o":"m 621 -10 l 649 -22 q 819 -68 760 -68 q 869 -62 838 -68 l 819 -178 q 781 -182 798 -182 q 596 -125 714 -182 q 436 -76 494 -76 q 339 -109 376 -76 l 299 -52 q 404 5 339 -8 q 211 121 290 41 q 100 293 132 201 q 69 475 69 385 q 201 817 69 675 q 553 958 334 958 q 909 821 773 958 q 1044 473 1044 683 q 1002 261 1044 362 q 855 81 959 161 q 621 -10 751 1 m 224 475 q 315 215 224 320 q 554 110 406 110 q 795 217 701 110 q 889 474 889 325 q 793 729 889 625 q 552 833 697 833 q 316 730 408 833 q 224 475 224 628 z "},"R":{"ha":839,"x_min":18,"x_max":842,"o":"m 147 118 l 147 825 l 18 825 l 18 943 l 401 943 q 591 925 521 943 q 708 846 662 906 q 754 696 754 786 q 559 461 754 509 l 726 118 l 842 118 l 842 0 l 637 0 l 422 441 l 290 441 l 290 118 l 410 118 l 410 0 l 18 0 l 18 118 l 147 118 m 290 559 l 401 559 q 520 569 481 559 q 583 612 558 580 q 607 699 607 644 q 582 777 607 745 q 521 817 557 808 q 410 825 485 825 l 290 825 l 290 559 z "},"S":{"ha":737,"x_min":45,"x_max":694,"o":"m 48 0 l 48 342 l 166 342 l 166 259 q 388 105 251 105 q 506 148 458 105 q 554 260 554 191 q 515 356 554 327 q 366 415 475 386 q 178 479 239 449 q 81 565 117 509 q 45 698 45 621 q 124 887 45 817 q 322 958 203 958 q 532 885 435 958 l 532 948 l 648 948 l 648 662 l 532 662 l 532 728 q 332 837 460 837 q 214 801 255 837 q 172 716 172 766 q 193 649 172 678 q 247 607 214 621 q 375 569 279 593 q 556 508 500 536 q 653 414 612 480 q 694 263 694 349 q 609 64 694 142 q 398 -15 524 -15 q 166 78 269 -15 l 166 0 l 48 0 z "},"T":{"ha":796,"x_min":16,"x_max":781,"o":"m 328 118 l 328 825 l 133 825 l 133 585 l 16 585 l 16 943 l 781 943 l 781 585 l 664 585 l 664 825 l 470 825 l 470 118 l 593 118 l 593 0 l 207 0 l 207 118 l 328 118 z "},"U":{"ha":940,"x_min":18,"x_max":922,"o":"m 277 825 l 277 353 q 289 201 277 243 q 345 130 300 159 q 460 100 389 100 q 589 126 544 100 q 648 194 633 151 q 663 347 663 237 l 663 825 l 553 825 l 553 943 l 922 943 l 922 825 l 804 825 l 804 332 q 796 188 804 233 q 750 93 787 142 q 645 15 713 44 q 480 -15 577 -15 q 302 13 373 -15 q 195 86 231 40 q 147 184 159 132 q 135 347 135 237 l 135 825 l 18 825 l 18 943 l 389 943 l 389 825 l 277 825 z "},"V":{"ha":983,"x_min":-3,"x_max":987,"o":"m 431 -9 l 114 825 l -3 825 l -3 943 l 370 943 l 370 825 l 260 825 l 500 192 l 734 825 l 625 825 l 625 943 l 987 943 l 987 825 l 872 825 l 562 -9 l 431 -9 z "},"W":{"ha":1389,"x_min":0,"x_max":1390,"o":"m 353 -9 l 113 825 l 0 825 l 0 943 l 361 943 l 361 825 l 248 825 l 426 208 l 597 825 l 485 825 l 485 943 l 918 943 l 918 825 l 808 825 l 980 208 l 1155 825 l 1043 825 l 1043 943 l 1390 943 l 1390 825 l 1278 825 l 1043 -9 l 908 -9 l 696 736 l 485 -9 l 353 -9 z "},"X":{"ha":911,"x_min":14,"x_max":899,"o":"m 140 118 l 380 475 l 140 825 l 19 825 l 19 943 l 399 943 l 399 825 l 292 825 l 456 586 l 621 825 l 511 825 l 511 943 l 873 943 l 873 825 l 755 825 l 523 487 l 776 118 l 899 118 l 899 0 l 511 0 l 511 118 l 621 118 l 448 374 l 275 118 l 390 118 l 390 0 l 14 0 l 14 118 l 140 118 z "},"Y":{"ha":897,"x_min":-14,"x_max":911,"o":"m 382 118 l 382 429 l 101 825 l -14 825 l -14 943 l 374 943 l 374 825 l 255 825 l 463 534 l 653 825 l 534 825 l 534 943 l 911 943 l 911 825 l 786 825 l 524 429 l 524 118 l 653 118 l 653 0 l 255 0 l 255 118 l 382 118 z "},"Z":{"ha":782,"x_min":35,"x_max":736,"o":"m 35 0 l 35 118 l 540 825 l 174 825 l 174 659 l 58 659 l 58 943 l 720 943 l 720 839 l 206 118 l 619 118 l 619 300 l 736 300 l 736 0 l 35 0 z "},"[":{"ha":521,"x_min":146,"x_max":481,"o":"m 481 943 l 481 849 l 275 849 l 275 -189 l 481 -189 l 481 -283 l 146 -283 l 146 943 l 481 943 z "},"\\":{"ha":608,"x_min":7,"x_max":601,"o":"m 119 962 l 601 -15 l 488 -15 l 7 962 l 119 962 z "},"]":{"ha":521,"x_min":40,"x_max":375,"o":"m 40 943 l 375 943 l 375 -283 l 40 -283 l 40 -189 l 246 -189 l 246 849 l 40 849 l 40 943 z "},"^":{"ha":652,"x_min":37,"x_max":615,"o":"m 162 400 l 37 400 l 276 943 l 374 943 l 615 400 l 492 400 l 325 805 l 162 400 z "},"_":{"ha":694,"x_min":-8,"x_max":703,"o":"m -8 -104 l 703 -104 l 703 -174 l -8 -174 l -8 -104 z "},"`":{"ha":463,"x_min":75,"x_max":358,"o":"m 358 743 l 271 743 l 75 958 l 262 958 l 358 743 z "},"a":{"ha":737,"x_min":64,"x_max":720,"o":"m 720 115 l 720 0 l 494 0 l 494 80 q 286 -11 401 -11 q 130 47 196 -11 q 64 197 64 106 q 134 349 64 288 q 303 409 204 409 q 481 353 395 409 l 481 418 q 472 496 481 469 q 428 545 463 523 q 336 566 393 566 q 196 489 239 566 l 73 522 q 356 675 155 675 q 484 655 430 675 q 564 603 538 635 q 600 535 591 572 q 609 418 609 498 l 609 115 l 720 115 m 481 244 q 313 309 398 309 q 223 278 259 309 q 187 197 187 247 q 219 120 187 151 q 304 89 250 89 q 481 168 398 89 l 481 244 z "},"b":{"ha":897,"x_min":37,"x_max":837,"o":"m 37 0 l 37 115 l 153 115 l 153 829 l 37 829 l 37 943 l 279 943 l 279 564 q 517 675 376 675 q 745 582 653 675 q 837 336 837 488 q 747 89 837 189 q 517 -11 657 -11 q 373 23 438 -11 q 279 98 308 57 l 279 0 l 37 0 m 283 327 q 346 164 283 224 q 491 104 409 104 q 640 168 577 104 q 702 339 702 232 q 640 500 702 443 q 494 557 578 557 q 348 498 412 557 q 283 327 283 439 z "},"c":{"ha":724,"x_min":49,"x_max":692,"o":"m 671 656 l 671 408 l 556 408 q 498 517 547 479 q 384 555 449 555 q 243 494 297 555 q 189 333 189 433 q 240 169 189 240 q 389 98 292 98 q 586 227 525 98 l 692 177 q 384 -19 604 -19 q 138 87 228 -19 q 49 333 49 194 q 146 578 49 481 q 372 675 244 675 q 556 610 481 675 l 556 656 l 671 656 z "},"d":{"ha":868,"x_min":61,"x_max":865,"o":"m 865 115 l 865 0 l 618 0 l 618 96 q 383 -11 522 -11 q 158 77 255 -11 q 61 326 61 164 q 161 581 61 488 q 386 675 260 675 q 618 569 519 675 l 618 829 l 492 829 l 492 943 l 747 943 l 747 115 l 865 115 m 199 329 q 260 162 199 220 q 407 104 321 104 q 554 165 490 104 q 618 335 618 227 q 552 500 618 444 q 406 555 487 555 q 258 490 318 555 q 199 329 199 425 z "},"e":{"ha":796,"x_min":50,"x_max":745,"o":"m 745 296 l 193 296 q 264 149 205 205 q 417 92 324 92 q 631 201 552 92 l 745 151 q 600 23 689 64 q 414 -19 511 -19 q 157 75 264 -19 q 50 328 50 169 q 154 577 50 479 q 393 675 258 675 q 633 579 526 675 q 745 296 741 484 m 612 389 q 540 514 598 458 q 397 570 481 570 q 264 520 319 570 q 197 389 210 469 l 612 389 z "},"f":{"ha":406,"x_min":38,"x_max":477,"o":"m 134 115 l 134 542 l 38 542 l 38 656 l 134 656 l 134 751 q 184 917 134 871 q 304 962 235 962 q 477 811 454 962 l 363 793 q 313 857 356 857 q 273 837 284 857 q 262 751 262 817 l 262 656 l 375 656 l 375 542 l 262 542 l 262 115 l 387 115 l 387 0 l 38 0 l 38 115 l 134 115 z "},"g":{"ha":868,"x_min":49,"x_max":852,"o":"m 852 656 l 852 542 l 734 542 l 734 53 q 724 -94 734 -46 q 675 -192 714 -142 q 558 -275 636 -241 q 384 -309 480 -309 q 125 -222 239 -309 l 209 -128 q 395 -195 294 -195 q 498 -173 450 -195 q 569 -121 545 -152 q 599 -63 592 -91 q 606 29 606 -36 l 606 89 q 510 16 575 50 q 368 -19 445 -19 q 138 79 227 -19 q 49 319 49 176 q 147 571 49 475 q 374 667 245 667 q 606 563 504 667 l 606 656 l 852 656 m 186 321 q 244 159 186 222 q 392 96 302 96 q 544 159 480 96 q 608 322 608 222 q 544 485 608 423 q 396 546 480 546 q 249 485 312 546 q 186 321 186 425 z "},"h":{"ha":796,"x_min":28,"x_max":788,"o":"m 147 115 l 147 829 l 28 829 l 28 943 l 276 943 l 276 581 q 496 675 392 675 q 604 648 562 675 q 661 576 646 621 q 676 446 676 532 l 676 115 l 788 115 l 788 0 l 547 0 l 547 401 q 543 501 547 476 q 516 543 538 526 q 466 559 495 559 q 276 474 391 559 l 276 115 l 390 115 l 390 0 l 28 0 l 28 115 l 147 115 z "},"i":{"ha":406,"x_min":45,"x_max":377,"o":"m 129 880 q 151 934 129 911 q 207 957 173 957 q 262 935 239 957 q 285 880 285 912 q 262 824 285 847 q 207 802 239 802 q 152 825 174 802 q 129 880 129 848 m 147 115 l 147 542 l 45 542 l 45 656 l 276 656 l 276 115 l 377 115 l 377 0 l 45 0 l 45 115 l 147 115 z "},"j":{"ha":406,"x_min":-26,"x_max":293,"o":"m 137 880 q 160 934 137 911 q 215 957 183 957 q 270 935 248 957 q 293 880 293 912 q 270 824 293 847 q 215 802 247 802 q 159 825 182 802 q 137 880 137 848 m -26 -282 l -26 -165 q 37 -170 7 -170 q 113 -154 87 -170 q 147 -109 138 -138 q 155 77 155 -79 l 155 542 l 52 542 l 52 656 l 284 656 l 284 98 q 273 -138 284 -71 q 209 -247 262 -204 q 50 -289 155 -289 q -26 -282 10 -289 z "},"k":{"ha":796,"x_min":34,"x_max":780,"o":"m 152 115 l 152 829 l 34 829 l 34 943 l 281 943 l 281 354 l 526 550 l 417 550 l 417 656 l 780 656 l 780 550 l 680 550 l 433 345 l 665 115 l 780 115 l 780 0 l 611 0 l 281 330 l 281 115 l 394 115 l 394 0 l 34 0 l 34 115 l 152 115 z "},"l":{"ha":406,"x_min":28,"x_max":374,"o":"m 144 115 l 144 829 l 28 829 l 28 943 l 273 943 l 273 115 l 374 115 l 374 0 l 28 0 l 28 115 l 144 115 z "},"m":{"ha":1202,"x_min":37,"x_max":1194,"o":"m 154 115 l 154 542 l 45 542 l 45 656 l 283 656 l 283 574 q 511 667 399 667 q 667 564 624 667 q 905 667 795 667 q 1010 638 969 667 q 1065 567 1051 610 q 1080 440 1080 524 l 1080 115 l 1194 115 l 1194 0 l 951 0 l 951 417 q 946 497 951 474 q 920 536 941 521 q 870 551 899 551 q 682 467 787 551 l 682 115 l 795 115 l 795 0 l 553 0 l 553 429 q 535 523 553 494 q 471 551 516 551 q 283 467 398 551 l 283 115 l 398 115 l 398 0 l 37 0 l 37 115 l 154 115 z "},"n":{"ha":796,"x_min":37,"x_max":791,"o":"m 281 656 l 281 577 q 508 667 406 667 q 613 636 572 667 q 668 563 655 606 q 681 435 681 519 l 681 115 l 791 115 l 791 0 l 552 0 l 552 429 q 530 527 552 504 q 475 549 507 549 q 281 466 389 549 l 281 115 l 395 115 l 395 0 l 37 0 l 37 115 l 153 115 l 153 542 l 37 542 l 37 656 l 281 656 z "},"o":{"ha":796,"x_min":53,"x_max":743,"o":"m 53 328 q 153 577 53 480 q 398 675 254 675 q 642 579 540 675 q 743 328 743 483 q 642 77 743 174 q 398 -19 541 -19 q 152 79 252 -19 q 53 328 53 176 m 189 328 q 250 169 189 231 q 398 107 311 107 q 547 170 487 107 q 607 328 607 233 q 546 487 607 425 q 398 549 485 549 q 248 486 307 549 q 189 328 189 422 z "},"p":{"ha":868,"x_min":9,"x_max":811,"o":"m 130 -180 l 130 542 l 19 542 l 19 656 l 258 656 l 258 553 q 492 667 355 667 q 721 572 630 667 q 811 325 811 477 q 713 73 811 165 q 489 -19 614 -19 q 258 81 359 -19 l 258 -180 l 386 -180 l 386 -294 l 9 -294 l 9 -180 l 130 -180 m 256 319 q 279 215 256 264 q 350 132 301 165 q 465 98 399 98 q 617 160 557 98 q 677 330 677 222 q 614 494 677 435 q 471 553 551 553 q 321 489 386 553 q 256 319 256 425 z "},"q":{"ha":854,"x_min":50,"x_max":852,"o":"m 732 -180 l 852 -180 l 852 -294 l 475 -294 l 475 -180 l 603 -180 l 603 83 q 370 -19 505 -19 q 149 73 248 -19 q 50 326 50 164 q 142 573 50 479 q 370 667 233 667 q 603 553 507 667 l 603 656 l 842 656 l 842 542 l 732 542 l 732 -180 m 605 319 q 540 489 605 425 q 390 553 475 553 q 246 492 307 553 q 184 328 184 432 q 240 165 184 232 q 395 98 295 98 q 551 166 496 98 q 605 319 605 234 z "},"r":{"ha":579,"x_min":31,"x_max":559,"o":"m 163 115 l 163 542 l 31 542 l 31 656 l 266 656 l 266 509 q 326 604 288 566 q 408 654 365 642 q 526 667 451 667 l 559 667 l 559 536 l 534 536 q 387 517 435 536 q 315 445 338 497 q 292 259 292 393 l 292 115 l 435 115 l 435 0 l 31 0 l 31 115 l 163 115 z "},"s":{"ha":636,"x_min":57,"x_max":596,"o":"m 57 0 l 57 225 l 172 225 l 172 203 q 222 127 178 157 q 326 98 266 98 q 425 119 388 98 q 463 180 463 141 q 432 235 463 217 q 309 267 401 252 q 116 341 174 290 q 58 474 58 393 q 121 611 58 556 q 287 667 184 667 q 447 629 380 667 l 447 656 l 562 656 l 562 439 l 447 439 l 447 479 q 295 559 395 559 q 211 537 244 559 q 178 479 178 515 q 209 428 178 441 q 338 398 239 414 q 483 363 434 383 q 564 297 532 343 q 596 189 596 250 q 526 43 596 97 q 344 -11 456 -11 q 172 37 239 -11 l 172 0 l 57 0 z "},"t":{"ha":419,"x_min":42,"x_max":378,"o":"m 42 542 l 42 656 l 127 656 l 127 758 l 256 876 l 256 656 l 378 656 l 378 542 l 256 542 l 256 223 q 265 129 256 146 q 307 111 273 111 q 378 124 343 111 l 378 7 q 279 -11 328 -11 q 183 15 220 -11 q 137 81 146 41 q 127 216 127 120 l 127 542 l 42 542 z "},"u":{"ha":782,"x_min":36,"x_max":768,"o":"m 768 115 l 768 0 l 526 0 l 526 75 q 309 -11 413 -11 q 200 18 243 -11 q 143 93 157 47 q 129 240 129 138 l 129 542 l 36 542 l 36 656 l 258 656 l 258 256 q 262 159 258 184 q 286 117 266 134 q 335 101 305 101 q 526 186 425 101 l 526 542 l 410 542 l 410 656 l 655 656 l 655 115 l 768 115 z "},"v":{"ha":753,"x_min":-3,"x_max":755,"o":"m 328 -11 l 113 542 l -3 542 l -3 656 l 328 656 l 328 542 l 242 542 l 383 170 l 525 542 l 434 542 l 434 656 l 755 656 l 755 542 l 654 542 l 444 -11 l 328 -11 z "},"w":{"ha":1071,"x_min":-2,"x_max":1071,"o":"m 254 -11 l 78 542 l -2 542 l -2 656 l 275 656 l 275 542 l 189 542 l 314 146 l 439 542 l 368 542 l 368 656 l 685 656 l 685 542 l 613 542 l 739 146 l 865 542 l 774 542 l 774 656 l 1071 656 l 1071 542 l 977 542 l 800 -11 l 679 -11 l 528 464 l 375 -11 l 254 -11 z "},"x":{"ha":766,"x_min":24,"x_max":743,"o":"m 386 261 l 258 115 l 342 115 l 342 0 l 24 0 l 24 115 l 121 115 l 319 338 l 130 542 l 41 542 l 41 656 l 350 656 l 350 542 l 268 542 l 386 415 l 500 542 l 433 542 l 433 656 l 743 656 l 743 542 l 635 542 l 455 338 l 660 115 l 743 115 l 743 0 l 433 0 l 433 115 l 524 115 l 386 261 z "},"y":{"ha":782,"x_min":12,"x_max":770,"o":"m 336 12 l 121 542 l 12 542 l 12 656 l 336 656 l 336 542 l 258 542 l 399 178 l 538 542 l 452 542 l 452 656 l 770 656 l 770 542 l 672 542 l 347 -294 l 130 -294 l 130 -182 l 258 -182 l 336 12 z "},"z":{"ha":623,"x_min":22,"x_max":587,"o":"m 22 0 l 22 107 l 434 550 l 164 550 l 164 424 l 54 424 l 54 656 l 587 656 l 587 542 l 174 107 l 475 107 l 475 241 l 587 241 l 587 0 l 22 0 z "},"{":{"ha":463,"x_min":39,"x_max":432,"o":"m 39 377 q 121 401 88 378 q 166 469 153 425 q 180 627 180 513 q 196 829 180 772 q 258 915 212 886 q 394 943 304 943 l 432 943 l 432 842 l 411 842 q 319 820 343 842 q 294 711 294 797 q 288 500 294 561 q 250 397 281 440 q 153 324 220 355 q 259 236 224 297 q 294 37 294 176 q 298 -124 294 -90 q 324 -176 302 -158 q 411 -193 346 -193 l 432 -193 l 432 -294 l 394 -294 q 290 -281 328 -294 q 223 -233 252 -269 q 188 -145 195 -197 q 180 22 180 -92 q 166 180 180 136 q 120 248 153 224 q 39 272 87 271 l 39 377 z "},"|":{"ha":732,"x_min":313,"x_max":419,"o":"m 313 962 l 419 962 l 419 -309 l 313 -309 l 313 962 z "},"}":{"ha":463,"x_min":31,"x_max":423,"o":"m 423 272 q 342 248 374 271 q 296 180 309 224 q 283 22 283 136 q 267 -181 283 -123 q 204 -266 250 -238 q 68 -294 158 -294 l 31 -294 l 31 -194 l 52 -194 q 144 -171 119 -194 q 168 -63 168 -149 q 175 149 168 88 q 212 251 182 209 q 310 324 243 294 q 203 412 239 351 q 168 611 168 473 q 164 773 168 739 q 138 825 160 807 q 52 842 116 842 l 31 842 l 31 943 l 68 943 q 173 930 135 943 q 239 882 211 918 q 275 794 267 846 q 283 627 283 741 q 296 469 283 513 q 342 401 309 425 q 423 377 375 378 l 423 272 z "},"~":{"ha":810,"x_min":33,"x_max":777,"o":"m 777 452 q 578 365 671 365 q 497 377 536 365 q 366 432 458 389 q 235 472 280 472 q 33 377 144 472 l 33 492 q 240 578 140 578 q 439 515 303 578 q 577 472 531 472 q 777 566 667 472 l 777 452 z "},"Ä":{"ha":970,"x_min":-11,"x_max":981,"o":"m 658 332 l 319 332 l 246 118 l 361 118 l 361 0 l -11 0 l -11 118 l 103 118 l 361 837 l 246 837 l 246 943 l 728 943 l 728 837 l 611 837 l 875 118 l 981 118 l 981 0 l 611 0 l 611 118 l 728 118 l 658 332 m 623 442 l 497 837 l 484 837 l 354 442 l 623 442 m 290 1097 q 312 1149 290 1127 q 365 1172 334 1172 q 418 1150 396 1172 q 440 1097 440 1128 q 418 1043 440 1065 q 365 1021 396 1021 q 312 1043 334 1021 q 290 1097 290 1065 m 535 1097 q 556 1149 535 1126 q 610 1172 578 1172 q 664 1149 642 1172 q 686 1097 686 1127 q 664 1043 686 1065 q 610 1021 642 1021 q 557 1043 578 1021 q 535 1097 535 1065 z "},"Å":{"ha":970,"x_min":-11,"x_max":981,"o":"m 430 943 q 338 1080 338 983 q 381 1184 338 1141 q 485 1227 424 1227 q 589 1184 547 1227 q 632 1080 632 1141 q 540 943 632 983 l 728 943 l 728 837 l 611 837 l 875 118 l 981 118 l 981 0 l 611 0 l 611 118 l 728 118 l 658 332 l 319 332 l 246 118 l 361 118 l 361 0 l -11 0 l -11 118 l 103 118 l 361 837 l 246 837 l 246 943 l 430 943 m 403 1080 q 427 1023 403 1047 q 485 998 450 998 q 543 1022 519 998 q 567 1080 567 1046 q 543 1138 567 1114 q 485 1162 519 1162 q 427 1138 451 1162 q 403 1080 403 1114 m 623 442 l 497 837 l 484 837 l 354 442 l 623 442 z "},"Ç":{"ha":1055,"x_min":59,"x_max":989,"o":"m 494 -13 q 175 139 291 1 q 59 469 59 277 q 189 825 59 692 q 529 958 319 958 q 840 857 714 958 l 840 943 l 962 943 l 962 640 l 840 640 q 715 783 800 732 q 536 833 630 833 q 305 732 395 833 q 214 475 214 630 q 311 214 214 315 q 541 113 408 113 q 740 183 650 113 q 866 384 829 254 l 989 315 q 843 87 951 172 q 587 -13 735 2 l 581 -46 q 699 -165 699 -62 q 659 -261 699 -214 q 472 -308 619 -308 q 414 -307 446 -308 l 414 -230 q 526 -219 497 -230 q 555 -183 555 -209 q 537 -149 555 -159 q 470 -138 518 -138 l 494 -13 z "},"É":{"ha":868,"x_min":38,"x_max":822,"o":"m 160 118 l 160 825 l 38 825 l 38 943 l 822 943 l 822 659 l 705 659 l 705 825 l 302 825 l 302 545 l 653 545 l 653 427 l 302 427 l 302 118 l 705 118 l 705 290 l 822 290 l 822 0 l 38 0 l 38 118 l 160 118 m 346 999 l 441 1214 l 629 1214 l 433 999 l 346 999 z "},"Ñ":{"ha":999,"x_min":7,"x_max":996,"o":"m 142 118 l 142 825 l 7 825 l 7 943 l 329 943 l 743 210 l 743 825 l 609 825 l 609 943 l 996 943 l 996 825 l 857 825 l 857 -9 l 711 -9 l 258 795 l 258 118 l 393 118 l 393 0 l 7 0 l 7 118 l 142 118 m 650 1199 l 726 1199 q 687 1053 724 1095 q 602 1010 650 1010 q 479 1056 554 1010 q 393 1095 414 1095 q 363 1079 372 1095 q 355 1021 355 1062 l 277 1021 q 313 1160 277 1118 q 400 1202 349 1202 q 525 1154 441 1202 q 602 1119 583 1119 q 650 1199 648 1119 z "},"Ö":{"ha":1114,"x_min":69,"x_max":1045,"o":"m 69 476 q 203 820 69 682 q 553 958 338 958 q 908 820 771 958 q 1045 473 1045 682 q 906 123 1045 261 q 551 -15 766 -15 q 299 51 414 -15 q 127 233 184 116 q 69 476 69 350 m 224 475 q 315 215 224 320 q 554 110 406 110 q 795 217 701 110 q 889 474 889 325 q 793 729 889 625 q 552 833 697 833 q 316 730 408 833 q 224 475 224 628 m 359 1097 q 381 1149 359 1127 q 434 1172 403 1172 q 487 1150 465 1172 q 509 1097 509 1128 q 487 1043 509 1065 q 434 1021 465 1021 q 381 1043 404 1021 q 359 1097 359 1065 m 604 1097 q 626 1149 604 1126 q 680 1172 647 1172 q 733 1149 711 1172 q 755 1097 755 1127 q 733 1043 755 1065 q 680 1021 711 1021 q 626 1043 648 1021 q 604 1097 604 1065 z "},"Ü":{"ha":940,"x_min":18,"x_max":922,"o":"m 277 825 l 277 353 q 289 201 277 243 q 345 130 300 159 q 460 100 389 100 q 589 126 544 100 q 648 194 633 151 q 663 347 663 237 l 663 825 l 553 825 l 553 943 l 922 943 l 922 825 l 804 825 l 804 332 q 796 188 804 233 q 750 93 787 142 q 645 15 713 44 q 480 -15 577 -15 q 302 13 373 -15 q 195 86 231 40 q 147 184 159 132 q 135 347 135 237 l 135 825 l 18 825 l 18 943 l 389 943 l 389 825 l 277 825 m 273 1097 q 295 1149 273 1127 q 348 1172 317 1172 q 401 1150 379 1172 q 423 1097 423 1128 q 401 1043 423 1065 q 348 1021 379 1021 q 295 1043 317 1021 q 273 1097 273 1065 m 518 1097 q 539 1149 518 1126 q 593 1172 561 1172 q 647 1149 625 1172 q 669 1097 669 1127 q 647 1043 669 1065 q 593 1021 625 1021 q 540 1043 562 1021 q 518 1097 518 1065 z "},"á":{"ha":737,"x_min":64,"x_max":720,"o":"m 720 115 l 720 0 l 494 0 l 494 80 q 286 -11 401 -11 q 130 47 196 -11 q 64 197 64 106 q 134 349 64 288 q 303 409 204 409 q 481 353 395 409 l 481 418 q 472 496 481 469 q 428 545 463 523 q 336 566 393 566 q 196 489 239 566 l 73 522 q 356 675 155 675 q 484 655 430 675 q 564 603 538 635 q 600 535 591 572 q 609 418 609 498 l 609 115 l 720 115 m 481 244 q 313 309 398 309 q 223 278 259 309 q 187 197 187 247 q 219 120 187 151 q 304 89 250 89 q 481 168 398 89 l 481 244 m 241 743 l 337 958 l 524 958 l 328 743 l 241 743 z "},"à":{"ha":737,"x_min":64,"x_max":720,"o":"m 720 115 l 720 0 l 494 0 l 494 80 q 286 -11 401 -11 q 130 47 196 -11 q 64 197 64 106 q 134 349 64 288 q 303 409 204 409 q 481 353 395 409 l 481 418 q 472 496 481 469 q 428 545 463 523 q 336 566 393 566 q 196 489 239 566 l 73 522 q 356 675 155 675 q 484 655 430 675 q 564 603 538 635 q 600 535 591 572 q 609 418 609 498 l 609 115 l 720 115 m 481 244 q 313 309 398 309 q 223 278 259 309 q 187 197 187 247 q 219 120 187 151 q 304 89 250 89 q 481 168 398 89 l 481 244 m 480 743 l 393 743 l 197 958 l 385 958 l 480 743 z "},"â":{"ha":737,"x_min":64,"x_max":720,"o":"m 720 115 l 720 0 l 494 0 l 494 80 q 286 -11 401 -11 q 130 47 196 -11 q 64 197 64 106 q 134 349 64 288 q 303 409 204 409 q 481 353 395 409 l 481 418 q 472 496 481 469 q 428 545 463 523 q 336 566 393 566 q 196 489 239 566 l 73 522 q 356 675 155 675 q 484 655 430 675 q 564 603 538 635 q 600 535 591 572 q 609 418 609 498 l 609 115 l 720 115 m 481 244 q 313 309 398 309 q 223 278 259 309 q 187 197 187 247 q 219 120 187 151 q 304 89 250 89 q 481 168 398 89 l 481 244 m 354 863 l 242 745 l 151 745 l 264 957 l 446 957 l 563 745 l 467 745 l 354 863 z "},"ä":{"ha":737,"x_min":64,"x_max":720,"o":"m 720 115 l 720 0 l 494 0 l 494 80 q 286 -11 401 -11 q 130 47 196 -11 q 64 197 64 106 q 134 349 64 288 q 303 409 204 409 q 481 353 395 409 l 481 418 q 472 496 481 469 q 428 545 463 523 q 336 566 393 566 q 196 489 239 566 l 73 522 q 356 675 155 675 q 484 655 430 675 q 564 603 538 635 q 600 535 591 572 q 609 418 609 498 l 609 115 l 720 115 m 481 244 q 313 309 398 309 q 223 278 259 309 q 187 197 187 247 q 219 120 187 151 q 304 89 250 89 q 481 168 398 89 l 481 244 m 155 851 q 177 904 155 882 q 231 926 199 926 q 284 904 262 926 q 306 851 306 882 q 284 798 306 819 q 231 776 262 776 q 178 798 200 776 q 155 851 155 820 m 401 851 q 422 904 401 881 q 476 926 444 926 q 529 904 507 926 q 551 851 551 882 q 529 798 551 820 q 476 776 507 776 q 422 798 444 776 q 401 851 401 820 z "},"ã":{"ha":737,"x_min":64,"x_max":720,"o":"m 720 115 l 720 0 l 494 0 l 494 80 q 286 -11 401 -11 q 130 47 196 -11 q 64 197 64 106 q 134 349 64 288 q 303 409 204 409 q 481 353 395 409 l 481 418 q 472 496 481 469 q 428 545 463 523 q 336 566 393 566 q 196 489 239 566 l 73 522 q 356 675 155 675 q 484 655 430 675 q 564 603 538 635 q 600 535 591 572 q 609 418 609 498 l 609 115 l 720 115 m 481 244 q 313 309 398 309 q 223 278 259 309 q 187 197 187 247 q 219 120 187 151 q 304 89 250 89 q 481 168 398 89 l 481 244 m 506 943 l 582 943 q 542 797 579 839 q 458 755 505 755 q 335 800 410 755 q 249 840 269 840 q 219 823 228 840 q 210 765 210 806 l 132 765 q 169 905 133 863 q 256 947 205 947 q 380 898 296 947 q 458 863 439 863 q 506 943 503 863 z "},"å":{"ha":737,"x_min":64,"x_max":720,"o":"m 720 115 l 720 0 l 494 0 l 494 80 q 286 -11 401 -11 q 130 47 196 -11 q 64 197 64 106 q 134 349 64 288 q 303 409 204 409 q 481 353 395 409 l 481 418 q 472 496 481 469 q 428 545 463 523 q 336 566 393 566 q 196 489 239 566 l 73 522 q 356 675 155 675 q 484 655 430 675 q 564 603 538 635 q 600 535 591 572 q 609 418 609 498 l 609 115 l 720 115 m 481 244 q 313 309 398 309 q 223 278 259 309 q 187 197 187 247 q 219 120 187 151 q 304 89 250 89 q 481 168 398 89 l 481 244 m 218 851 q 257 945 218 905 q 353 986 296 986 q 449 946 410 986 q 488 851 488 907 q 449 756 488 795 q 353 716 409 716 q 257 756 296 716 q 218 851 218 797 m 271 851 q 295 793 271 818 q 353 769 319 769 q 411 793 387 769 q 435 851 435 817 q 411 908 435 884 q 353 932 387 932 q 295 908 318 932 q 271 851 271 884 z "},"ç":{"ha":724,"x_min":49,"x_max":692,"o":"m 405 -18 l 396 -66 q 492 -176 492 -90 q 446 -270 492 -231 q 288 -310 399 -310 l 239 -310 l 239 -235 q 337 -222 311 -235 q 363 -183 363 -210 q 298 -144 363 -144 l 321 -14 q 124 105 199 5 q 49 333 49 206 q 146 578 49 481 q 372 675 244 675 q 556 610 481 675 l 556 656 l 671 656 l 671 408 l 556 408 q 498 517 547 479 q 384 555 449 555 q 243 494 297 555 q 189 333 189 433 q 240 169 189 240 q 389 98 292 98 q 586 227 525 98 l 692 177 q 405 -18 610 -6 z "},"é":{"ha":796,"x_min":50,"x_max":745,"o":"m 745 296 l 193 296 q 264 149 205 205 q 417 92 324 92 q 631 201 552 92 l 745 151 q 600 23 689 64 q 414 -19 511 -19 q 157 75 264 -19 q 50 328 50 169 q 154 577 50 479 q 393 675 258 675 q 633 579 526 675 q 745 296 741 484 m 612 389 q 540 514 598 458 q 397 570 481 570 q 264 520 319 570 q 197 389 210 469 l 612 389 m 297 743 l 393 958 l 580 958 l 384 743 l 297 743 z "},"è":{"ha":796,"x_min":50,"x_max":745,"o":"m 745 296 l 193 296 q 264 149 205 205 q 417 92 324 92 q 631 201 552 92 l 745 151 q 600 23 689 64 q 414 -19 511 -19 q 157 75 264 -19 q 50 328 50 169 q 154 577 50 479 q 393 675 258 675 q 633 579 526 675 q 745 296 741 484 m 612 389 q 540 514 598 458 q 397 570 481 570 q 264 520 319 570 q 197 389 210 469 l 612 389 m 502 743 l 415 743 l 219 958 l 406 958 l 502 743 z "},"ê":{"ha":796,"x_min":50,"x_max":745,"o":"m 745 296 l 193 296 q 264 149 205 205 q 417 92 324 92 q 631 201 552 92 l 745 151 q 600 23 689 64 q 414 -19 511 -19 q 157 75 264 -19 q 50 328 50 169 q 154 577 50 479 q 393 675 258 675 q 633 579 526 675 q 745 296 741 484 m 612 389 q 540 514 598 458 q 397 570 481 570 q 264 520 319 570 q 197 389 210 469 l 612 389 m 395 863 l 283 745 l 191 745 l 305 957 l 486 957 l 604 745 l 508 745 l 395 863 z "},"ë":{"ha":796,"x_min":50,"x_max":745,"o":"m 745 296 l 193 296 q 264 149 205 205 q 417 92 324 92 q 631 201 552 92 l 745 151 q 600 23 689 64 q 414 -19 511 -19 q 157 75 264 -19 q 50 328 50 169 q 154 577 50 479 q 393 675 258 675 q 633 579 526 675 q 745 296 741 484 m 612 389 q 540 514 598 458 q 397 570 481 570 q 264 520 319 570 q 197 389 210 469 l 612 389 m 199 851 q 221 904 199 882 q 275 926 243 926 q 328 904 306 926 q 350 851 350 882 q 328 798 350 819 q 275 776 306 776 q 222 798 244 776 q 199 851 199 820 m 445 851 q 466 904 445 881 q 520 926 488 926 q 573 904 551 926 q 595 851 595 882 q 573 798 595 820 q 520 776 551 776 q 467 798 488 776 q 445 851 445 820 z "},"í":{"ha":406,"x_min":45,"x_max":381,"o":"m 147 115 l 147 542 l 45 542 l 45 656 l 276 656 l 276 115 l 377 115 l 377 0 l 45 0 l 45 115 l 147 115 m 98 743 l 194 958 l 381 958 l 185 743 l 98 743 z "},"ì":{"ha":406,"x_min":16,"x_max":377,"o":"m 147 115 l 147 542 l 45 542 l 45 656 l 276 656 l 276 115 l 377 115 l 377 0 l 45 0 l 45 115 l 147 115 m 299 743 l 212 743 l 16 958 l 203 958 l 299 743 z "},"î":{"ha":406,"x_min":-3,"x_max":410,"o":"m 147 115 l 147 542 l 45 542 l 45 656 l 276 656 l 276 115 l 377 115 l 377 0 l 45 0 l 45 115 l 147 115 m 201 863 l 89 745 l -3 745 l 111 957 l 292 957 l 410 745 l 314 745 l 201 863 z "},"ï":{"ha":406,"x_min":5,"x_max":401,"o":"m 147 115 l 147 542 l 45 542 l 45 656 l 276 656 l 276 115 l 377 115 l 377 0 l 45 0 l 45 115 l 147 115 m 5 851 q 27 904 5 882 q 81 926 50 926 q 134 904 112 926 q 156 851 156 882 q 134 798 156 819 q 81 776 112 776 q 28 798 50 776 q 5 851 5 820 m 251 851 q 272 904 251 881 q 326 926 294 926 q 379 904 357 926 q 401 851 401 882 q 379 798 401 820 q 326 776 357 776 q 273 798 294 776 q 251 851 251 820 z "},"ñ":{"ha":796,"x_min":37,"x_max":791,"o":"m 281 656 l 281 577 q 508 667 406 667 q 613 636 572 667 q 668 563 655 606 q 681 435 681 519 l 681 115 l 791 115 l 791 0 l 552 0 l 552 429 q 530 527 552 504 q 475 549 507 549 q 281 466 389 549 l 281 115 l 395 115 l 395 0 l 37 0 l 37 115 l 153 115 l 153 542 l 37 542 l 37 656 l 281 656 m 564 943 l 640 943 q 600 797 637 839 q 515 755 563 755 q 393 800 467 755 q 307 840 327 840 q 277 823 286 840 q 268 765 268 806 l 190 765 q 227 905 191 863 q 313 947 262 947 q 438 898 354 947 q 515 863 496 863 q 564 943 561 863 z "},"ó":{"ha":796,"x_min":53,"x_max":743,"o":"m 53 328 q 153 577 53 480 q 398 675 254 675 q 642 579 540 675 q 743 328 743 483 q 642 77 743 174 q 398 -19 541 -19 q 152 79 252 -19 q 53 328 53 176 m 189 328 q 250 169 189 231 q 398 107 311 107 q 547 170 487 107 q 607 328 607 233 q 546 487 607 425 q 398 549 485 549 q 248 486 307 549 q 189 328 189 422 m 306 743 l 401 958 l 589 958 l 393 743 l 306 743 z "},"ò":{"ha":796,"x_min":53,"x_max":743,"o":"m 53 328 q 153 577 53 480 q 398 675 254 675 q 642 579 540 675 q 743 328 743 483 q 642 77 743 174 q 398 -19 541 -19 q 152 79 252 -19 q 53 328 53 176 m 189 328 q 250 169 189 231 q 398 107 311 107 q 547 170 487 107 q 607 328 607 233 q 546 487 607 425 q 398 549 485 549 q 248 486 307 549 q 189 328 189 422 m 490 743 l 404 743 l 208 958 l 395 958 l 490 743 z "},"ô":{"ha":796,"x_min":53,"x_max":743,"o":"m 53 328 q 153 577 53 480 q 398 675 254 675 q 642 579 540 675 q 743 328 743 483 q 642 77 743 174 q 398 -19 541 -19 q 152 79 252 -19 q 53 328 53 176 m 189 328 q 250 169 189 231 q 398 107 311 107 q 547 170 487 107 q 607 328 607 233 q 546 487 607 425 q 398 549 485 549 q 248 486 307 549 q 189 328 189 422 m 395 863 l 283 745 l 192 745 l 306 957 l 487 957 l 604 745 l 509 745 l 395 863 z "},"ö":{"ha":796,"x_min":53,"x_max":743,"o":"m 53 328 q 153 577 53 480 q 398 675 254 675 q 642 579 540 675 q 743 328 743 483 q 642 77 743 174 q 398 -19 541 -19 q 152 79 252 -19 q 53 328 53 176 m 189 328 q 250 169 189 231 q 398 107 311 107 q 547 170 487 107 q 607 328 607 233 q 546 487 607 425 q 398 549 485 549 q 248 486 307 549 q 189 328 189 422 m 200 851 q 222 904 200 882 q 275 926 244 926 q 329 904 307 926 q 351 851 351 882 q 329 798 351 819 q 275 776 307 776 q 222 798 245 776 q 200 851 200 820 m 446 851 q 467 904 446 881 q 521 926 488 926 q 574 904 552 926 q 596 851 596 882 q 574 798 596 820 q 521 776 552 776 q 467 798 489 776 q 446 851 446 820 z "},"õ":{"ha":796,"x_min":53,"x_max":743,"o":"m 53 328 q 153 577 53 480 q 398 675 254 675 q 642 579 540 675 q 743 328 743 483 q 642 77 743 174 q 398 -19 541 -19 q 152 79 252 -19 q 53 328 53 176 m 189 328 q 250 169 189 231 q 398 107 311 107 q 547 170 487 107 q 607 328 607 233 q 546 487 607 425 q 398 549 485 549 q 248 486 307 549 q 189 328 189 422 m 547 943 l 623 943 q 584 797 621 839 q 499 755 547 755 q 376 800 451 755 q 290 840 311 840 q 260 823 269 840 q 252 765 252 806 l 174 765 q 210 905 174 863 q 297 947 246 947 q 422 898 338 947 q 499 863 480 863 q 547 943 545 863 z "},"ú":{"ha":782,"x_min":36,"x_max":768,"o":"m 768 115 l 768 0 l 526 0 l 526 75 q 309 -11 413 -11 q 200 18 243 -11 q 143 93 157 47 q 129 240 129 138 l 129 542 l 36 542 l 36 656 l 258 656 l 258 256 q 262 159 258 184 q 286 117 266 134 q 335 101 305 101 q 526 186 425 101 l 526 542 l 410 542 l 410 656 l 655 656 l 655 115 l 768 115 m 294 743 l 389 958 l 576 958 l 380 743 l 294 743 z "},"ù":{"ha":782,"x_min":36,"x_max":768,"o":"m 768 115 l 768 0 l 526 0 l 526 75 q 309 -11 413 -11 q 200 18 243 -11 q 143 93 157 47 q 129 240 129 138 l 129 542 l 36 542 l 36 656 l 258 656 l 258 256 q 262 159 258 184 q 286 117 266 134 q 335 101 305 101 q 526 186 425 101 l 526 542 l 410 542 l 410 656 l 655 656 l 655 115 l 768 115 m 501 743 l 414 743 l 218 958 l 406 958 l 501 743 z "},"û":{"ha":782,"x_min":36,"x_max":768,"o":"m 768 115 l 768 0 l 526 0 l 526 75 q 309 -11 413 -11 q 200 18 243 -11 q 143 93 157 47 q 129 240 129 138 l 129 542 l 36 542 l 36 656 l 258 656 l 258 256 q 262 159 258 184 q 286 117 266 134 q 335 101 305 101 q 526 186 425 101 l 526 542 l 410 542 l 410 656 l 655 656 l 655 115 l 768 115 m 399 863 l 288 745 l 196 745 l 310 957 l 491 957 l 608 745 l 513 745 l 399 863 z "},"ü":{"ha":782,"x_min":36,"x_max":768,"o":"m 768 115 l 768 0 l 526 0 l 526 75 q 309 -11 413 -11 q 200 18 243 -11 q 143 93 157 47 q 129 240 129 138 l 129 542 l 36 542 l 36 656 l 258 656 l 258 256 q 262 159 258 184 q 286 117 266 134 q 335 101 305 101 q 526 186 425 101 l 526 542 l 410 542 l 410 656 l 655 656 l 655 115 l 768 115 m 204 851 q 226 904 204 882 q 279 926 248 926 q 333 904 311 926 q 355 851 355 882 q 333 798 355 819 q 279 776 311 776 q 227 798 249 776 q 204 851 204 820 m 450 851 q 471 904 450 881 q 525 926 492 926 q 578 904 556 926 q 600 851 600 882 q 578 798 600 820 q 525 776 556 776 q 471 798 493 776 q 450 851 450 820 z "},"†":{"ha":724,"x_min":32,"x_max":692,"o":"m 292 958 l 435 958 l 435 802 q 388 615 390 722 q 564 656 498 617 l 692 656 l 692 526 l 564 526 q 399 566 498 566 l 388 566 q 435 374 388 448 l 435 210 l 388 -302 l 336 -302 l 292 210 l 292 374 q 336 566 335 451 q 163 526 233 565 l 32 526 l 32 656 l 163 656 q 336 615 239 615 q 292 802 336 741 l 292 958 z "},"°":{"ha":550,"x_min":41,"x_max":510,"o":"m 275 958 q 441 889 372 958 q 510 724 510 821 q 441 558 510 627 q 275 489 372 489 q 109 558 178 489 q 41 724 41 627 q 110 889 41 821 q 275 958 178 958 m 275 870 q 173 827 216 870 q 130 724 130 785 q 172 621 130 664 q 275 578 215 578 q 378 622 336 578 q 421 724 421 665 q 378 828 421 786 q 275 870 334 870 z "},"¢":{"ha":724,"x_min":56,"x_max":699,"o":"m 235 16 q 103 148 151 62 q 56 333 56 235 q 152 576 56 478 q 375 675 249 675 q 465 660 422 675 l 572 964 l 632 964 l 517 642 q 563 610 543 629 l 563 660 l 678 660 l 678 408 l 572 408 q 479 534 557 495 l 328 109 q 394 98 357 98 q 593 227 532 98 l 699 177 q 389 -19 611 -19 q 287 -5 334 -19 l 182 -300 l 123 -300 l 235 16 m 278 137 l 426 552 q 390 555 407 555 q 249 494 302 555 q 195 333 195 432 q 278 137 195 205 z "},"£":{"ha":753,"x_min":45,"x_max":726,"o":"m 388 405 q 397 314 397 358 q 376 176 397 248 q 527 121 486 121 q 644 239 633 121 l 726 239 q 666 44 723 104 q 524 -15 610 -15 q 326 68 439 -15 q 178 -15 262 -15 q 85 18 125 -15 q 46 109 46 52 q 89 207 46 171 q 185 243 131 243 q 285 218 229 243 q 286 247 286 237 q 252 405 286 312 l 45 405 l 45 514 l 211 514 q 157 736 157 649 q 232 903 157 847 q 407 958 306 958 q 588 899 514 958 q 663 716 663 840 q 662 692 663 708 l 532 692 l 534 729 q 506 811 534 772 q 413 850 479 850 q 290 741 290 850 q 355 514 290 685 l 524 514 l 524 405 l 388 405 m 259 119 q 166 161 202 161 q 129 148 145 161 q 113 110 113 134 q 170 58 113 58 q 259 119 219 58 z "},"§":{"ha":665,"x_min":34,"x_max":631,"o":"m 591 712 l 463 712 q 415 816 459 785 q 314 847 371 847 q 225 821 263 847 q 188 747 188 794 q 228 671 188 701 q 378 602 269 641 q 573 503 515 553 q 631 369 631 453 q 498 170 631 248 q 610 -12 610 106 q 540 -175 610 -106 q 345 -243 469 -243 q 159 -183 234 -243 q 79 9 83 -124 l 205 9 q 247 -92 208 -57 q 348 -126 286 -126 q 447 -97 412 -126 q 481 -26 481 -67 q 441 46 481 16 q 285 118 401 77 q 142 178 189 152 q 64 251 94 205 q 34 351 34 298 q 172 545 34 469 q 59 731 59 611 q 133 896 59 833 q 321 958 208 958 q 521 893 452 958 q 591 724 591 827 l 591 712 m 251 505 q 156 385 156 453 q 183 321 156 348 q 414 213 210 294 q 513 336 513 261 q 479 403 513 377 q 340 468 445 429 q 251 505 291 487 z "},"•":{"ha":492,"x_min":77,"x_max":417,"o":"m 247 642 q 366 593 315 642 q 417 471 417 545 q 367 352 417 401 q 247 302 317 302 q 126 352 176 302 q 77 471 77 401 q 127 592 77 542 q 247 642 177 642 z "},"¶":{"ha":753,"x_min":0,"x_max":750,"o":"m 274 -294 l 274 382 q 74 464 149 387 q 0 660 0 540 q 78 862 0 781 q 321 943 156 943 l 750 943 l 750 826 l 652 826 l 652 -294 l 539 -294 l 539 826 l 388 826 l 388 -294 l 274 -294 z "},"ß":{"ha":897,"x_min":38,"x_max":834,"o":"m 283 115 l 385 115 l 385 0 l 38 0 l 38 115 l 155 115 l 155 570 q 178 789 155 715 q 278 912 201 863 q 465 962 355 962 q 667 901 585 962 q 748 731 748 840 q 627 542 748 602 q 781 447 728 521 q 834 273 834 372 q 764 67 834 144 q 577 -11 694 -11 q 460 15 513 -11 l 460 123 q 546 100 502 100 q 657 148 615 100 q 699 274 699 195 q 666 391 699 345 q 586 454 633 437 q 460 473 538 471 l 460 580 q 573 619 532 580 q 614 718 614 659 q 573 813 614 777 q 466 850 532 850 q 353 820 395 850 q 298 737 312 791 q 283 570 283 684 l 283 115 z "},"®":{"ha":1028,"x_min":2,"x_max":1025,"o":"m 514 958 q 764 893 643 958 q 955 705 885 827 q 1025 446 1025 583 q 876 84 1025 235 q 514 -66 726 -66 q 152 84 302 -66 q 2 446 2 235 q 72 705 2 584 q 262 892 142 825 q 514 958 382 958 m 514 873 q 306 818 407 873 q 146 662 205 764 q 87 446 87 560 q 212 145 87 270 q 514 20 337 20 q 816 145 691 20 q 941 446 941 270 q 815 748 941 623 q 514 873 690 873 m 290 163 l 290 713 l 479 713 q 606 703 561 713 q 682 653 650 692 q 714 564 714 614 q 671 460 714 506 q 557 409 629 414 q 685 271 608 395 l 752 163 l 644 163 l 595 250 q 510 372 539 348 q 431 397 481 397 l 378 397 l 378 163 l 290 163 m 378 473 l 486 473 q 620 557 620 473 q 588 620 620 602 q 479 639 556 639 l 378 639 l 378 473 z "},"©":{"ha":1028,"x_min":2,"x_max":1025,"o":"m 514 958 q 764 893 643 958 q 955 705 885 827 q 1025 446 1025 583 q 876 84 1025 235 q 514 -66 726 -66 q 152 84 302 -66 q 2 446 2 235 q 72 705 2 584 q 262 892 142 825 q 514 958 382 958 m 514 873 q 306 818 407 873 q 146 662 205 764 q 87 446 87 560 q 212 145 87 270 q 514 20 337 20 q 816 145 691 20 q 941 446 941 270 q 815 748 941 623 q 514 873 690 873 m 678 363 l 762 338 q 675 204 743 254 q 516 153 608 153 q 369 192 431 153 q 276 296 307 231 q 246 445 246 362 q 319 655 246 578 q 520 733 392 733 q 671 689 610 733 q 751 573 732 646 l 671 553 q 517 658 629 658 q 385 597 431 658 q 338 443 338 536 q 385 288 338 343 q 510 233 432 233 q 616 267 568 233 q 678 363 664 301 z "},"™":{"ha":1389,"x_min":156,"x_max":1213,"o":"m 335 391 l 335 861 l 156 861 l 156 943 l 608 943 l 608 861 l 427 861 l 427 391 l 335 391 m 669 391 l 669 943 l 805 943 l 945 502 l 1080 943 l 1213 943 l 1213 391 l 1128 391 l 1128 854 l 986 391 l 903 391 l 754 861 l 754 391 l 669 391 z "},"´":{"ha":463,"x_min":106,"x_max":389,"o":"m 106 743 l 201 958 l 389 958 l 193 743 l 106 743 z "},"¨":{"ha":463,"x_min":33,"x_max":429,"o":"m 33 851 q 55 904 33 882 q 109 926 77 926 q 162 904 140 926 q 184 851 184 882 q 162 798 184 819 q 109 776 140 776 q 56 798 78 776 q 33 851 33 820 m 279 851 q 300 904 279 881 q 354 926 321 926 q 407 904 385 926 q 429 851 429 882 q 407 798 429 820 q 354 776 385 776 q 300 798 322 776 q 279 851 279 820 z "},"≠":{"ha":926,"x_min":92,"x_max":835,"o":"m 592 684 l 835 684 l 835 578 l 551 578 l 467 366 l 835 366 l 835 259 l 426 259 l 286 -99 l 194 -99 l 334 259 l 92 259 l 92 366 l 376 366 l 459 578 l 92 578 l 92 684 l 500 684 l 641 1042 l 732 1042 l 592 684 z "},"Æ":{"ha":1303,"x_min":-82,"x_max":1246,"o":"m 578 430 l 312 430 l 150 118 l 252 118 l 252 0 l -82 0 l -82 118 l 9 118 l 374 825 l 224 825 l 224 943 l 1246 943 l 1246 659 l 1129 659 l 1129 825 l 721 825 l 721 548 l 1075 548 l 1075 430 l 721 430 l 721 118 l 1129 118 l 1129 290 l 1246 290 l 1246 0 l 427 0 l 427 118 l 578 118 l 578 430 m 578 548 l 578 825 l 517 825 l 371 548 l 578 548 z "},"Ø":{"ha":1114,"x_min":69,"x_max":1045,"o":"m 918 810 q 1045 472 1045 675 q 905 123 1045 261 q 554 -15 766 -15 q 264 73 389 -15 l 188 -14 l 119 45 l 196 132 q 69 479 69 273 q 204 819 69 680 q 553 958 338 958 q 849 869 724 958 l 926 956 l 995 897 l 918 810 m 294 242 l 755 764 q 553 833 666 833 q 316 730 408 833 q 224 476 224 628 q 294 242 224 343 m 819 698 l 357 177 q 555 110 442 110 q 794 218 700 110 q 889 473 889 326 q 819 698 889 601 z "},"∞":{"ha":810,"x_min":14,"x_max":798,"o":"m 377 536 q 504 666 456 638 q 603 694 551 694 q 738 641 677 694 q 798 477 798 588 q 741 306 798 363 q 603 249 684 249 q 496 282 543 249 q 377 407 449 316 q 182 291 285 291 q 60 347 106 291 q 14 472 14 403 q 57 594 14 535 q 182 653 100 653 q 377 536 285 653 m 424 473 q 520 355 479 386 q 601 325 560 325 q 685 359 648 325 q 723 470 723 393 q 688 579 723 541 q 599 618 653 618 q 526 591 561 618 q 424 473 490 564 m 330 472 q 181 578 248 578 q 115 549 140 578 q 90 474 90 520 q 116 398 90 428 q 182 368 142 368 q 330 472 250 368 z "},"±":{"ha":926,"x_min":92,"x_max":835,"o":"m 92 640 l 410 640 l 410 958 l 516 958 l 516 640 l 835 640 l 835 533 l 516 533 l 516 215 l 410 215 l 410 533 l 92 533 l 92 640 m 92 92 l 835 92 l 835 -15 l 92 -15 l 92 92 z "},"≤":{"ha":926,"x_min":92,"x_max":835,"o":"m 835 250 l 92 562 l 92 657 l 835 969 l 835 854 l 237 609 l 835 365 l 835 250 m 92 81 l 835 81 l 835 -26 l 92 -26 l 92 81 z "},"≥":{"ha":926,"x_min":92,"x_max":835,"o":"m 92 969 l 835 657 l 835 562 l 92 250 l 92 365 l 690 609 l 92 854 l 92 969 m 92 81 l 835 81 l 835 -26 l 92 -26 l 92 81 z "},"¥":{"ha":897,"x_min":-14,"x_max":911,"o":"m 593 534 l 845 534 l 845 455 l 541 455 l 524 429 l 524 313 l 845 313 l 845 234 l 524 234 l 524 118 l 653 118 l 653 0 l 255 0 l 255 118 l 382 118 l 382 234 l 52 234 l 52 313 l 382 313 l 382 429 l 364 455 l 52 455 l 52 534 l 308 534 l 101 825 l -14 825 l -14 943 l 374 943 l 374 825 l 255 825 l 463 534 l 653 825 l 534 825 l 534 943 l 911 943 l 911 825 l 786 825 l 593 534 z "},"µ":{"ha":766,"x_min":92,"x_max":673,"o":"m 673 656 l 673 0 l 564 0 l 564 85 q 382 -17 504 -17 q 212 73 277 -17 l 212 -294 l 92 -294 l 92 656 l 212 656 l 212 415 q 222 229 212 286 q 274 133 232 172 q 378 94 317 94 q 486 131 440 94 q 542 222 531 168 q 553 413 553 277 l 553 656 l 673 656 z "},"∂":{"ha":686,"x_min":38,"x_max":660,"o":"m 289 772 l 197 812 q 308 963 241 914 q 441 1011 376 1011 q 601 917 542 1011 q 660 628 660 823 q 610 307 660 458 q 459 70 561 156 q 245 -17 357 -17 q 96 45 154 -17 q 38 218 38 107 q 100 429 38 332 q 285 575 163 525 q 582 627 408 625 q 543 860 581 796 q 443 924 506 924 q 289 772 346 924 m 579 540 q 337 494 416 532 q 209 373 258 457 q 160 205 160 289 q 196 111 160 146 q 275 76 233 76 q 465 191 373 76 q 579 540 556 306 z "},"∑":{"ha":990,"x_min":83,"x_max":940,"o":"m 94 962 l 933 962 l 933 851 l 263 851 l 675 341 l 235 -198 l 940 -198 l 940 -309 l 83 -309 l 83 -180 l 503 336 l 94 843 l 94 962 z "},"∏":{"ha":1143,"x_min":110,"x_max":1034,"o":"m 110 962 l 1034 962 l 1034 -309 l 904 -309 l 904 844 l 239 844 l 239 -309 l 110 -309 l 110 962 z "},"π":{"ha":868,"x_min":35,"x_max":834,"o":"m 35 721 l 834 721 l 834 614 l 726 614 l 726 0 l 598 0 l 598 614 l 270 614 l 270 0 l 142 0 l 142 614 l 35 614 l 35 721 z "},"∫":{"ha":376,"x_min":-2,"x_max":378,"o":"m 134 412 q 170 917 134 802 q 294 1033 206 1033 q 352 1013 326 1033 q 378 960 378 993 q 361 910 378 930 q 315 890 344 890 q 264 913 292 890 q 237 927 248 927 q 210 884 210 927 q 216 786 210 856 q 241 323 241 508 q 209 -244 241 -109 q 79 -380 178 -380 q 19 -357 41 -380 q -2 -298 -2 -334 q 15 -250 -2 -269 q 59 -231 32 -231 q 106 -253 86 -231 q 139 -274 125 -274 q 165 -233 165 -274 q 159 -151 165 -205 q 134 412 134 63 z "},"ª":{"ha":478,"x_min":33,"x_max":458,"o":"m 458 622 l 458 553 l 313 553 l 313 601 q 177 547 252 547 q 77 581 121 547 q 33 671 33 614 q 80 764 33 729 q 189 799 127 799 q 304 765 248 799 l 304 804 q 283 870 304 848 q 210 893 262 893 q 119 846 147 893 l 38 866 q 221 958 92 958 q 323 939 284 958 q 375 891 362 920 q 387 804 387 863 l 387 622 l 458 622 m 304 700 q 196 739 250 739 q 135 719 158 739 q 113 671 113 700 q 132 626 113 646 q 190 606 151 606 q 304 653 250 606 l 304 700 z "},"º":{"ha":521,"x_min":36,"x_max":485,"o":"m 36 750 q 102 901 36 843 q 260 958 168 958 q 419 900 353 958 q 485 750 485 842 q 419 600 485 657 q 260 542 353 542 q 101 600 167 542 q 36 750 36 659 m 125 750 q 164 654 125 692 q 260 617 204 617 q 356 655 317 617 q 396 750 396 692 q 356 846 396 810 q 260 882 315 882 q 165 846 205 882 q 125 750 125 810 z "},"Ω":{"ha":1099,"x_min":92,"x_max":1008,"o":"m 342 109 q 107 550 107 245 q 158 781 107 671 q 310 955 208 890 q 553 1019 412 1019 q 874 884 755 1019 q 992 545 992 748 q 759 109 992 262 l 1008 113 l 1008 0 l 616 0 l 616 120 q 789 283 728 171 q 851 527 851 396 q 776 797 851 684 q 552 909 701 909 q 326 797 400 909 q 251 533 251 686 q 314 274 251 382 q 483 122 377 167 l 483 0 l 92 0 l 92 114 l 342 109 z "},"æ":{"ha":1229,"x_min":58,"x_max":1170,"o":"m 1170 295 l 637 295 q 707 148 643 203 q 854 92 771 92 q 967 122 912 92 q 1055 197 1022 151 l 1170 146 q 1040 26 1126 71 q 857 -19 954 -19 q 564 122 673 -19 q 455 25 529 70 q 296 -19 382 -19 q 127 37 197 -19 q 58 189 58 92 q 137 348 58 290 q 314 405 216 405 q 505 350 408 405 l 505 418 q 493 500 505 473 q 447 547 481 528 q 355 566 412 566 q 190 486 239 566 l 65 521 q 368 675 153 675 q 602 573 530 675 q 835 675 694 675 q 1073 568 979 675 q 1170 295 1168 460 m 1029 393 q 959 518 1015 474 q 832 562 903 562 q 706 515 762 562 q 636 393 651 469 l 1029 393 m 505 235 q 334 300 423 300 q 236 268 273 300 q 198 188 198 237 q 235 114 198 142 q 320 86 271 86 q 505 170 426 86 l 505 235 z "},"ø":{"ha":796,"x_min":53,"x_max":743,"o":"m 149 81 q 53 329 53 180 q 154 577 53 480 q 397 675 255 675 q 602 612 512 675 l 667 689 l 712 650 l 647 573 q 743 328 743 475 q 642 78 743 176 q 399 -19 541 -19 q 196 43 286 -19 l 130 -35 l 83 5 l 149 81 m 237 184 l 516 512 q 398 549 462 549 q 250 487 311 549 q 189 329 189 425 q 237 184 189 244 m 560 471 l 281 143 q 399 107 334 107 q 545 168 482 107 q 607 328 607 229 q 560 471 607 412 z "},"¿":{"ha":652,"x_min":53,"x_max":619,"o":"m 450 663 l 450 496 l 283 496 l 283 663 l 450 663 m 332 408 l 401 408 l 418 109 q 353 117 386 117 q 226 72 265 117 q 186 -34 186 27 q 229 -146 186 -107 q 336 -186 271 -186 q 454 -140 416 -186 q 492 -24 492 -94 q 492 9 492 -9 l 618 9 q 619 -23 619 -9 q 537 -229 619 -162 q 340 -296 454 -296 q 127 -222 202 -296 q 53 -28 53 -149 q 124 157 53 87 q 293 226 196 226 q 315 225 300 226 l 332 408 z "},"¡":{"ha":406,"x_min":119,"x_max":286,"o":"m 119 663 l 286 663 l 286 496 l 119 496 l 119 663 m 237 410 l 271 5 l 271 -278 l 134 -278 l 134 5 l 168 410 l 237 410 z "},"¬":{"ha":926,"x_min":92,"x_max":835,"o":"m 92 684 l 835 684 l 835 259 l 728 259 l 728 578 l 92 578 l 92 684 z "},"√":{"ha":767,"x_min":59,"x_max":764,"o":"m 714 1267 l 764 1267 l 553 -53 l 216 640 l 82 578 l 59 621 l 263 724 l 538 165 l 714 1267 z "},"ƒ":{"ha":766,"x_min":31,"x_max":736,"o":"m 31 -275 l 55 -170 q 158 -184 123 -184 q 214 -165 194 -184 q 245 -81 233 -146 l 365 625 l 229 625 l 245 720 l 381 720 l 397 810 q 433 931 413 894 q 492 990 452 969 q 587 1012 532 1012 q 736 986 644 1012 l 712 882 q 608 899 644 899 q 548 877 564 899 q 519 790 531 854 l 506 720 l 644 720 l 627 625 l 489 625 l 359 -115 q 300 -254 342 -215 q 187 -292 259 -292 q 31 -275 119 -292 z "},"≈":{"ha":926,"x_min":92,"x_max":835,"o":"m 835 611 q 636 524 730 524 q 555 536 595 524 q 425 591 516 549 q 294 632 338 632 q 92 536 202 632 l 92 651 q 298 739 198 739 q 497 675 361 739 q 635 631 589 631 q 835 726 726 631 l 835 611 m 835 292 q 636 205 730 205 q 555 217 595 205 q 425 272 516 229 q 294 313 338 313 q 92 218 202 313 l 92 332 q 298 419 198 419 q 497 355 361 419 q 635 312 589 312 q 835 407 723 312 l 835 292 z "},"∆":{"ha":854,"x_min":20,"x_max":833,"o":"m 833 0 l 20 0 l 446 941 l 833 0 m 673 56 l 403 711 l 104 56 l 673 56 z "},"«":{"ha":665,"x_min":22,"x_max":650,"o":"m 22 328 l 224 656 l 359 656 l 161 328 l 359 0 l 224 0 l 22 328 m 313 328 l 514 656 l 650 656 l 452 328 l 650 0 l 514 0 l 313 328 z "},"»":{"ha":665,"x_min":16,"x_max":643,"o":"m 353 328 l 151 0 l 16 0 l 214 328 l 16 656 l 151 656 l 353 328 m 643 328 l 441 0 l 306 0 l 505 328 l 306 656 l 441 656 l 643 328 z "},"…":{"ha":1389,"x_min":149,"x_max":1241,"o":"m 149 0 l 149 167 l 315 167 l 315 0 l 149 0 m 612 0 l 612 167 l 778 167 l 778 0 l 612 0 m 1074 0 l 1074 167 l 1241 167 l 1241 0 l 1074 0 z "}," ":{"ha":347,"x_min":0,"x_max":0,"o":""},"À":{"ha":970,"x_min":-11,"x_max":981,"o":"m 658 332 l 319 332 l 246 118 l 361 118 l 361 0 l -11 0 l -11 118 l 103 118 l 361 837 l 246 837 l 246 943 l 728 943 l 728 837 l 611 837 l 875 118 l 981 118 l 981 0 l 611 0 l 611 118 l 728 118 l 658 332 m 623 442 l 497 837 l 484 837 l 354 442 l 623 442 m 577 999 l 490 999 l 294 1214 l 481 1214 l 577 999 z "},"Ã":{"ha":970,"x_min":-11,"x_max":981,"o":"m 658 332 l 319 332 l 246 118 l 361 118 l 361 0 l -11 0 l -11 118 l 103 118 l 361 837 l 246 837 l 246 943 l 728 943 l 728 837 l 611 837 l 875 118 l 981 118 l 981 0 l 611 0 l 611 118 l 728 118 l 658 332 m 623 442 l 497 837 l 484 837 l 354 442 l 623 442 m 637 1199 l 713 1199 q 673 1053 710 1095 q 589 1010 636 1010 q 466 1056 541 1010 q 380 1095 400 1095 q 350 1079 359 1095 q 341 1021 341 1062 l 263 1021 q 300 1160 264 1118 q 387 1202 336 1202 q 511 1154 427 1202 q 589 1119 570 1119 q 637 1199 634 1119 z "},"Õ":{"ha":1114,"x_min":69,"x_max":1045,"o":"m 69 476 q 203 820 69 682 q 553 958 338 958 q 908 820 771 958 q 1045 473 1045 682 q 906 123 1045 261 q 551 -15 766 -15 q 299 51 414 -15 q 127 233 184 116 q 69 476 69 350 m 224 475 q 315 215 224 320 q 554 110 406 110 q 795 217 701 110 q 889 474 889 325 q 793 729 889 625 q 552 833 697 833 q 316 730 408 833 q 224 475 224 628 m 706 1199 l 782 1199 q 742 1053 779 1095 q 658 1010 705 1010 q 535 1056 610 1010 q 449 1095 469 1095 q 419 1079 428 1095 q 410 1021 410 1062 l 332 1021 q 369 1160 333 1118 q 456 1202 405 1202 q 581 1154 496 1202 q 658 1119 639 1119 q 706 1199 703 1119 z "},"Œ":{"ha":1418,"x_min":56,"x_max":1372,"o":"m 852 825 l 852 548 l 1201 548 l 1201 430 l 852 430 l 852 118 l 1256 118 l 1256 288 l 1372 288 l 1372 0 l 657 0 q 415 12 490 0 q 253 83 341 24 q 110 244 165 142 q 56 463 56 347 q 105 686 56 583 q 230 845 155 789 q 389 922 304 900 q 625 943 473 943 l 1372 943 l 1372 659 l 1256 659 l 1256 825 l 852 825 m 709 825 l 586 825 q 432 812 490 825 q 319 757 374 798 q 230 641 263 715 q 197 472 197 567 q 249 264 197 348 q 384 150 301 181 q 604 118 467 118 l 709 118 l 709 825 z "},"œ":{"ha":1317,"x_min":50,"x_max":1263,"o":"m 1263 295 l 720 295 q 784 154 724 214 q 934 94 843 94 q 1149 202 1061 94 l 1263 153 q 1117 22 1207 62 q 936 -19 1026 -19 q 653 115 758 -19 q 393 -19 559 -19 q 150 78 250 -19 q 50 329 50 176 q 96 506 50 427 q 224 630 142 585 q 389 675 307 675 q 653 542 546 675 q 916 675 751 675 q 1162 568 1061 675 q 1263 295 1263 460 m 1118 393 q 1044 515 1103 470 q 913 560 986 560 q 790 517 843 560 q 724 393 738 473 l 1118 393 m 189 326 q 248 167 189 229 q 392 106 306 106 q 536 170 480 106 q 592 330 592 233 q 526 491 592 437 q 389 545 460 545 q 247 483 304 545 q 189 326 189 421 z "},"–":{"ha":694,"x_min":-8,"x_max":703,"o":"m -8 408 l 703 408 l 703 288 l -8 288 l -8 408 z "},"—":{"ha":1389,"x_min":-8,"x_max":1397,"o":"m -8 408 l 1397 408 l 1397 288 l -8 288 l -8 408 z "},"“":{"ha":724,"x_min":111,"x_max":613,"o":"m 278 755 l 278 589 l 111 589 l 111 734 q 123 848 111 808 q 172 915 134 889 q 278 943 209 941 l 278 873 q 197 772 197 861 l 197 755 l 278 755 m 613 755 l 613 589 l 447 589 l 447 734 q 458 848 447 808 q 507 915 469 889 q 613 943 545 941 l 613 873 q 532 772 532 861 q 532 755 532 766 l 613 755 z "},"”":{"ha":724,"x_min":111,"x_max":612,"o":"m 111 777 l 111 943 l 277 943 l 277 799 q 266 684 277 724 q 217 617 254 643 q 111 589 179 591 l 111 660 q 192 760 192 672 q 191 777 192 766 l 111 777 m 446 777 l 446 943 l 612 943 l 612 799 q 601 684 612 724 q 552 617 589 643 q 446 589 515 591 l 446 660 q 528 760 528 672 q 527 777 528 766 l 446 777 z "},"‘":{"ha":406,"x_min":119,"x_max":286,"o":"m 286 755 l 286 589 l 119 589 l 119 734 q 131 848 119 808 q 180 915 142 889 q 286 943 217 941 l 286 873 q 205 772 205 861 l 205 755 l 286 755 z "},"’":{"ha":406,"x_min":119,"x_max":286,"o":"m 119 777 l 119 943 l 286 943 l 286 799 q 275 684 286 724 q 225 617 263 643 q 119 589 188 591 l 119 660 q 201 760 201 672 q 200 777 201 766 l 119 777 z "},"÷":{"ha":926,"x_min":92,"x_max":835,"o":"m 463 822 q 510 803 490 822 q 530 755 530 783 q 510 709 530 728 q 463 690 490 690 q 416 709 436 690 q 397 755 397 728 q 417 803 397 785 q 463 822 437 822 m 92 525 l 835 525 l 835 418 l 92 418 l 92 525 m 463 254 q 510 235 490 254 q 530 188 530 216 q 510 141 530 160 q 463 121 490 121 q 416 141 436 121 q 397 188 397 160 q 416 235 397 216 q 463 254 436 254 z "},"◊":{"ha":686,"x_min":31,"x_max":655,"o":"m 372 964 l 655 481 l 372 0 l 296 0 l 31 481 l 296 964 l 372 964 m 335 899 l 104 481 l 335 64 l 578 481 l 335 899 z "},"ÿ":{"ha":782,"x_min":12,"x_max":770,"o":"m 336 12 l 121 542 l 12 542 l 12 656 l 336 656 l 336 542 l 258 542 l 399 178 l 538 542 l 452 542 l 452 656 l 770 656 l 770 542 l 672 542 l 347 -294 l 130 -294 l 130 -182 l 258 -182 l 336 12 m 201 851 q 223 904 201 882 q 276 926 245 926 q 329 904 307 926 q 351 851 351 882 q 329 798 351 819 q 276 776 307 776 q 223 798 245 776 q 201 851 201 820 m 446 851 q 468 904 446 881 q 522 926 489 926 q 575 904 553 926 q 597 851 597 882 q 575 798 597 820 q 522 776 553 776 q 468 798 490 776 q 446 851 446 820 z "},"Ÿ":{"ha":897,"x_min":-14,"x_max":911,"o":"m 382 118 l 382 429 l 101 825 l -14 825 l -14 943 l 374 943 l 374 825 l 255 825 l 463 534 l 653 825 l 534 825 l 534 943 l 911 943 l 911 825 l 786 825 l 524 429 l 524 118 l 653 118 l 653 0 l 255 0 l 255 118 l 382 118 m 250 1097 q 272 1149 250 1127 q 326 1172 294 1172 q 379 1150 357 1172 q 401 1097 401 1128 q 379 1043 401 1065 q 326 1021 357 1021 q 273 1043 295 1021 q 250 1097 250 1065 m 496 1097 q 517 1149 496 1126 q 571 1172 538 1172 q 624 1149 602 1172 q 646 1097 646 1127 q 624 1043 646 1065 q 571 1021 602 1021 q 517 1043 539 1021 q 496 1097 496 1065 z "},"∕":{"ha":419,"x_min":-205,"x_max":625,"o":"m -205 0 l 543 942 l 625 942 l -123 0 l -205 0 z "},"€":{"ha":753,"x_min":17,"x_max":737,"o":"m 239 518 l 237 475 l 239 431 l 489 431 l 489 328 l 249 328 q 454 98 281 98 q 553 148 511 98 q 614 278 596 198 l 737 224 q 639 50 715 115 q 444 -16 563 -16 q 106 328 149 -16 l 17 328 l 17 431 l 97 431 l 97 471 q 98 518 97 504 l 17 518 l 17 621 l 106 621 q 441 958 145 958 q 589 893 542 958 l 589 951 l 711 951 l 711 671 l 589 671 q 539 800 578 753 q 440 847 499 847 q 307 792 354 847 q 245 621 260 738 l 489 621 l 489 518 l 239 518 z "},"‹":{"ha":406,"x_min":37,"x_max":374,"o":"m 37 328 l 243 656 l 374 656 l 176 328 l 374 0 l 243 0 l 37 328 z "},"›":{"ha":406,"x_min":31,"x_max":368,"o":"m 368 328 l 162 0 l 31 0 l 229 328 l 31 656 l 162 656 l 368 328 z "},"":{"ha":796,"x_min":41,"x_max":776,"o":"m 490 808 l 375 793 q 324 857 369 857 q 283 830 294 857 q 273 724 273 804 l 273 656 l 671 656 l 671 115 l 776 115 l 776 0 l 440 0 l 440 115 l 543 115 l 543 542 l 273 542 l 273 115 l 375 115 l 375 0 l 41 0 l 41 115 l 144 115 l 144 542 l 41 542 l 41 656 l 144 656 l 144 724 q 199 916 144 870 q 321 962 254 962 q 439 916 397 962 q 490 808 482 870 m 610 956 q 664 934 641 956 q 688 879 688 912 q 665 823 688 846 q 610 800 642 800 q 554 823 577 800 q 532 879 532 846 q 555 934 532 912 q 610 956 578 956 z "},"":{"ha":796,"x_min":42,"x_max":775,"o":"m 42 115 l 141 115 l 141 542 l 42 542 l 42 656 l 141 656 l 141 713 q 189 906 141 849 q 312 962 237 962 q 395 943 349 962 l 669 943 l 669 115 l 775 115 l 775 0 l 439 0 l 439 115 l 541 115 l 541 829 l 371 829 q 326 854 348 854 q 284 828 299 854 q 270 720 270 803 l 270 656 l 383 656 l 383 542 l 270 542 l 270 115 l 371 115 l 371 0 l 42 0 l 42 115 z "},"‡":{"ha":724,"x_min":54,"x_max":669,"o":"m 291 958 l 433 958 l 433 804 q 387 638 391 730 q 548 677 494 644 l 669 677 l 669 551 l 548 551 q 387 589 479 587 q 454 335 396 454 q 387 76 393 212 q 548 115 491 79 l 669 115 l 669 -10 l 548 -10 q 387 26 495 20 q 433 -134 395 -71 l 433 -294 l 291 -294 l 291 -134 q 336 26 325 -73 q 180 -10 248 26 l 54 -10 l 54 115 l 180 115 q 336 76 230 84 q 275 335 328 225 q 336 589 326 438 q 180 551 243 587 l 54 551 l 54 677 l 180 677 q 336 638 241 643 q 291 804 330 742 l 291 958 z "},"∙":{"ha":406,"x_min":119,"x_max":286,"o":"m 119 389 l 119 555 l 286 555 l 286 389 l 119 389 z "},"‚":{"ha":406,"x_min":119,"x_max":286,"o":"m 119 0 l 119 167 l 286 167 l 286 22 q 275 -93 286 -52 q 225 -160 263 -134 q 119 -188 188 -186 l 119 -117 q 201 -16 201 -105 q 200 0 201 -11 l 119 0 z "},"„":{"ha":724,"x_min":111,"x_max":612,"o":"m 111 0 l 111 167 l 277 167 l 277 22 q 266 -93 277 -52 q 217 -160 254 -134 q 111 -188 179 -186 l 111 -117 q 192 -16 192 -105 q 191 0 192 -11 l 111 0 m 446 0 l 446 167 l 612 167 l 612 22 q 601 -93 612 -52 q 552 -160 589 -134 q 446 -188 515 -186 l 446 -117 q 528 -16 528 -105 q 527 0 528 -11 l 446 0 z "},"‰":{"ha":1504,"x_min":38,"x_max":1468,"o":"m 38 705 q 89 888 38 819 q 239 958 140 958 q 387 892 332 958 q 441 705 441 827 q 389 522 441 590 q 239 453 337 453 q 92 518 146 453 q 38 705 38 584 m 136 706 q 239 518 136 518 q 342 705 342 518 q 239 893 342 893 q 136 706 136 893 m 81 0 l 829 943 l 926 943 l 183 0 l 81 0 m 558 238 q 613 425 558 360 q 760 490 667 490 q 907 425 852 490 q 961 238 961 359 q 906 51 961 116 q 760 -15 852 -15 q 609 55 661 -15 q 558 238 558 124 m 656 238 q 760 50 656 50 q 863 237 863 50 q 760 425 863 425 q 656 238 656 425 m 1065 238 q 1120 425 1065 360 q 1267 490 1175 490 q 1414 425 1360 490 q 1468 238 1468 359 q 1414 51 1468 116 q 1267 -15 1359 -15 q 1117 55 1168 -15 q 1065 238 1065 124 m 1164 238 q 1267 50 1164 50 q 1371 237 1371 50 q 1267 425 1371 425 q 1164 238 1164 425 z "},"Â":{"ha":970,"x_min":-11,"x_max":981,"o":"m 658 332 l 319 332 l 246 118 l 361 118 l 361 0 l -11 0 l -11 118 l 103 118 l 361 837 l 246 837 l 246 943 l 728 943 l 728 837 l 611 837 l 875 118 l 981 118 l 981 0 l 611 0 l 611 118 l 728 118 l 658 332 m 623 442 l 497 837 l 484 837 l 354 442 l 623 442 m 485 1119 l 373 1001 l 281 1001 l 395 1213 l 576 1213 l 694 1001 l 598 1001 l 485 1119 z "},"Ê":{"ha":868,"x_min":38,"x_max":822,"o":"m 160 118 l 160 825 l 38 825 l 38 943 l 822 943 l 822 659 l 705 659 l 705 825 l 302 825 l 302 545 l 653 545 l 653 427 l 302 427 l 302 118 l 705 118 l 705 290 l 822 290 l 822 0 l 38 0 l 38 118 l 160 118 m 427 1119 l 315 1001 l 224 1001 l 338 1213 l 519 1213 l 636 1001 l 541 1001 l 427 1119 z "},"Á":{"ha":970,"x_min":-11,"x_max":981,"o":"m 658 332 l 319 332 l 246 118 l 361 118 l 361 0 l -11 0 l -11 118 l 103 118 l 361 837 l 246 837 l 246 943 l 728 943 l 728 837 l 611 837 l 875 118 l 981 118 l 981 0 l 611 0 l 611 118 l 728 118 l 658 332 m 623 442 l 497 837 l 484 837 l 354 442 l 623 442 m 393 999 l 488 1214 l 675 1214 l 479 999 l 393 999 z "},"Ë":{"ha":868,"x_min":38,"x_max":822,"o":"m 160 118 l 160 825 l 38 825 l 38 943 l 822 943 l 822 659 l 705 659 l 705 825 l 302 825 l 302 545 l 653 545 l 653 427 l 302 427 l 302 118 l 705 118 l 705 290 l 822 290 l 822 0 l 38 0 l 38 118 l 160 118 m 232 1097 q 254 1149 232 1127 q 307 1172 276 1172 q 360 1150 338 1172 q 382 1097 382 1128 q 360 1043 382 1065 q 307 1021 338 1021 q 254 1043 277 1021 q 232 1097 232 1065 m 477 1097 q 499 1149 477 1126 q 553 1172 520 1172 q 606 1149 584 1172 q 628 1097 628 1127 q 606 1043 628 1065 q 553 1021 584 1021 q 499 1043 521 1021 q 477 1097 477 1065 z "},"È":{"ha":868,"x_min":38,"x_max":822,"o":"m 160 118 l 160 825 l 38 825 l 38 943 l 822 943 l 822 659 l 705 659 l 705 825 l 302 825 l 302 545 l 653 545 l 653 427 l 302 427 l 302 118 l 705 118 l 705 290 l 822 290 l 822 0 l 38 0 l 38 118 l 160 118 m 530 999 l 444 999 l 248 1214 l 435 1214 l 530 999 z "},"Í":{"ha":435,"x_min":43,"x_max":404,"o":"m 146 118 l 146 825 l 43 825 l 43 943 l 391 943 l 391 825 l 288 825 l 288 118 l 391 118 l 391 0 l 43 0 l 43 118 l 146 118 m 121 999 l 216 1214 l 404 1214 l 208 999 l 121 999 z "},"Î":{"ha":435,"x_min":11,"x_max":423,"o":"m 146 118 l 146 825 l 43 825 l 43 943 l 391 943 l 391 825 l 288 825 l 288 118 l 391 118 l 391 0 l 43 0 l 43 118 l 146 118 m 214 1119 l 102 1001 l 11 1001 l 125 1213 l 306 1213 l 423 1001 l 328 1001 l 214 1119 z "},"Ï":{"ha":435,"x_min":19,"x_max":415,"o":"m 146 118 l 146 825 l 43 825 l 43 943 l 391 943 l 391 825 l 288 825 l 288 118 l 391 118 l 391 0 l 43 0 l 43 118 l 146 118 m 19 1097 q 41 1149 19 1127 q 94 1172 63 1172 q 148 1150 125 1172 q 170 1097 170 1128 q 148 1043 170 1065 q 94 1021 125 1021 q 41 1043 64 1021 q 19 1097 19 1065 m 264 1097 q 286 1149 264 1126 q 340 1172 307 1172 q 393 1149 371 1172 q 415 1097 415 1127 q 393 1043 415 1065 q 340 1021 371 1021 q 286 1043 308 1021 q 264 1097 264 1065 z "},"Ì":{"ha":435,"x_min":43,"x_max":391,"o":"m 146 118 l 146 825 l 43 825 l 43 943 l 391 943 l 391 825 l 288 825 l 288 118 l 391 118 l 391 0 l 43 0 l 43 118 l 146 118 m 327 999 l 240 999 l 44 1214 l 231 1214 l 327 999 z "},"Ó":{"ha":1114,"x_min":69,"x_max":1045,"o":"m 69 476 q 203 820 69 682 q 553 958 338 958 q 908 820 771 958 q 1045 473 1045 682 q 906 123 1045 261 q 551 -15 766 -15 q 299 51 414 -15 q 127 233 184 116 q 69 476 69 350 m 224 475 q 315 215 224 320 q 554 110 406 110 q 795 217 701 110 q 889 474 889 325 q 793 729 889 625 q 552 833 697 833 q 316 730 408 833 q 224 475 224 628 m 489 999 l 585 1214 l 772 1214 l 576 999 l 489 999 z "},"Ô":{"ha":1114,"x_min":69,"x_max":1045,"o":"m 69 476 q 203 820 69 682 q 553 958 338 958 q 908 820 771 958 q 1045 473 1045 682 q 906 123 1045 261 q 551 -15 766 -15 q 299 51 414 -15 q 127 233 184 116 q 69 476 69 350 m 224 475 q 315 215 224 320 q 554 110 406 110 q 795 217 701 110 q 889 474 889 325 q 793 729 889 625 q 552 833 697 833 q 316 730 408 833 q 224 475 224 628 m 555 1119 l 443 1001 l 351 1001 l 465 1213 l 646 1213 l 764 1001 l 668 1001 l 555 1119 z "},"Ò":{"ha":1114,"x_min":69,"x_max":1045,"o":"m 69 476 q 203 820 69 682 q 553 958 338 958 q 908 820 771 958 q 1045 473 1045 682 q 906 123 1045 261 q 551 -15 766 -15 q 299 51 414 -15 q 127 233 184 116 q 69 476 69 350 m 224 475 q 315 215 224 320 q 554 110 406 110 q 795 217 701 110 q 889 474 889 325 q 793 729 889 625 q 552 833 697 833 q 316 730 408 833 q 224 475 224 628 m 625 999 l 538 999 l 342 1214 l 529 1214 l 625 999 z "},"Ú":{"ha":940,"x_min":18,"x_max":922,"o":"m 277 825 l 277 353 q 289 201 277 243 q 345 130 300 159 q 460 100 389 100 q 589 126 544 100 q 648 194 633 151 q 663 347 663 237 l 663 825 l 553 825 l 553 943 l 922 943 l 922 825 l 804 825 l 804 332 q 796 188 804 233 q 750 93 787 142 q 645 15 713 44 q 480 -15 577 -15 q 302 13 373 -15 q 195 86 231 40 q 147 184 159 132 q 135 347 135 237 l 135 825 l 18 825 l 18 943 l 389 943 l 389 825 l 277 825 m 394 999 l 490 1214 l 677 1214 l 481 999 l 394 999 z "},"Û":{"ha":940,"x_min":18,"x_max":922,"o":"m 277 825 l 277 353 q 289 201 277 243 q 345 130 300 159 q 460 100 389 100 q 589 126 544 100 q 648 194 633 151 q 663 347 663 237 l 663 825 l 553 825 l 553 943 l 922 943 l 922 825 l 804 825 l 804 332 q 796 188 804 233 q 750 93 787 142 q 645 15 713 44 q 480 -15 577 -15 q 302 13 373 -15 q 195 86 231 40 q 147 184 159 132 q 135 347 135 237 l 135 825 l 18 825 l 18 943 l 389 943 l 389 825 l 277 825 m 468 1119 l 356 1001 l 264 1001 l 378 1213 l 559 1213 l 677 1001 l 581 1001 l 468 1119 z "},"Ù":{"ha":940,"x_min":18,"x_max":922,"o":"m 277 825 l 277 353 q 289 201 277 243 q 345 130 300 159 q 460 100 389 100 q 589 126 544 100 q 648 194 633 151 q 663 347 663 237 l 663 825 l 553 825 l 553 943 l 922 943 l 922 825 l 804 825 l 804 332 q 796 188 804 233 q 750 93 787 142 q 645 15 713 44 q 480 -15 577 -15 q 302 13 373 -15 q 195 86 231 40 q 147 184 159 132 q 135 347 135 237 l 135 825 l 18 825 l 18 943 l 389 943 l 389 825 l 277 825 m 546 999 l 459 999 l 263 1214 l 450 1214 l 546 999 z "},"ı":{"ha":406,"x_min":45,"x_max":377,"o":"m 147 115 l 147 542 l 45 542 l 45 656 l 276 656 l 276 115 l 377 115 l 377 0 l 45 0 l 45 115 l 147 115 z "},"ˆ":{"ha":463,"x_min":25,"x_max":437,"o":"m 229 863 l 117 745 l 25 745 l 139 957 l 320 957 l 437 745 l 342 745 l 229 863 z "},"˜":{"ha":463,"x_min":7,"x_max":456,"o":"m 380 943 l 456 943 q 417 797 454 839 q 332 755 380 755 q 210 800 284 755 q 123 840 144 840 q 94 823 102 840 q 85 765 85 806 l 7 765 q 43 905 7 863 q 130 947 79 947 q 255 898 171 947 q 332 863 313 863 q 380 943 378 863 z "},"ˉ":{"ha":463,"x_min":33,"x_max":429,"o":"m 33 791 l 33 899 l 429 899 l 429 791 l 33 791 z "},"˘":{"ha":463,"x_min":22,"x_max":441,"o":"m 22 947 l 119 947 q 231 849 136 849 q 344 947 328 849 l 441 947 q 376 808 434 863 q 231 754 319 754 q 86 808 144 754 q 22 947 29 863 z "},"˙":{"ha":463,"x_min":154,"x_max":309,"o":"m 154 851 q 177 906 154 883 q 232 928 199 928 q 287 906 264 928 q 309 851 309 883 q 287 796 309 819 q 232 773 264 773 q 176 797 199 773 q 154 851 154 820 z "},"˚":{"ha":463,"x_min":96,"x_max":366,"o":"m 96 851 q 135 945 96 905 q 231 986 174 986 q 327 946 288 986 q 366 851 366 907 q 327 756 366 795 q 231 716 287 716 q 135 756 174 716 q 96 851 96 797 m 149 851 q 173 793 149 818 q 231 769 197 769 q 289 793 265 769 q 313 851 313 817 q 289 908 313 884 q 231 932 265 932 q 173 908 196 932 q 149 851 149 884 z "},"¸":{"ha":463,"x_min":115,"x_max":368,"o":"m 286 14 l 272 -66 q 368 -176 368 -90 q 314 -276 368 -242 q 163 -310 260 -310 l 115 -310 l 115 -235 q 213 -222 186 -235 q 239 -183 239 -210 q 174 -144 239 -144 l 201 14 l 286 14 z "},"˝":{"ha":463,"x_min":-26,"x_max":488,"o":"m -26 743 l 69 958 l 256 958 l 60 743 l -26 743 m 205 743 l 301 958 l 488 958 l 292 743 l 205 743 z "},"˛":{"ha":463,"x_min":105,"x_max":358,"o":"m 146 0 l 254 0 q 227 -98 227 -49 q 302 -186 227 -186 q 358 -172 330 -186 l 358 -263 q 244 -293 297 -293 q 144 -254 182 -293 q 105 -150 105 -214 q 146 0 105 -90 z "},"ˇ":{"ha":463,"x_min":25,"x_max":437,"o":"m 234 838 l 347 957 l 437 957 l 323 745 l 143 745 l 25 957 l 121 957 l 234 838 z "},"Š":{"ha":737,"x_min":45,"x_max":694,"o":"m 48 0 l 48 342 l 166 342 l 166 259 q 388 105 251 105 q 506 148 458 105 q 554 260 554 191 q 515 356 554 327 q 366 415 475 386 q 178 479 239 449 q 81 565 117 509 q 45 698 45 621 q 124 887 45 817 q 322 958 203 958 q 532 885 435 958 l 532 948 l 648 948 l 648 662 l 532 662 l 532 728 q 332 837 460 837 q 214 801 255 837 q 172 716 172 766 q 193 649 172 678 q 247 607 214 621 q 375 569 279 593 q 556 508 500 536 q 653 414 612 480 q 694 263 694 349 q 609 64 694 142 q 398 -15 524 -15 q 166 78 269 -15 l 166 0 l 48 0 m 356 1094 l 469 1213 l 559 1213 l 446 1001 l 265 1001 l 147 1213 l 243 1213 l 356 1094 z "},"š":{"ha":636,"x_min":57,"x_max":596,"o":"m 57 0 l 57 225 l 172 225 l 172 203 q 222 127 178 157 q 326 98 266 98 q 425 119 388 98 q 463 180 463 141 q 432 235 463 217 q 309 267 401 252 q 116 341 174 290 q 58 474 58 393 q 121 611 58 556 q 287 667 184 667 q 447 629 380 667 l 447 656 l 562 656 l 562 439 l 447 439 l 447 479 q 295 559 395 559 q 211 537 244 559 q 178 479 178 515 q 209 428 178 441 q 338 398 239 414 q 483 363 434 383 q 564 297 532 343 q 596 189 596 250 q 526 43 596 97 q 344 -11 456 -11 q 172 37 239 -11 l 172 0 l 57 0 m 329 838 l 441 957 l 532 957 l 418 745 l 238 745 l 120 957 l 216 957 l 329 838 z "},"¦":{"ha":732,"x_min":313,"x_max":419,"o":"m 313 962 l 419 962 l 419 434 l 313 434 l 313 962 m 313 218 l 419 218 l 419 -309 l 313 -309 l 313 218 z "},"Ð":{"ha":1013,"x_min":5,"x_max":943,"o":"m 146 421 l 5 421 l 5 522 l 146 522 l 146 825 l 18 825 l 18 943 l 383 943 q 616 928 534 943 q 774 857 698 912 q 897 706 851 802 q 943 488 943 610 q 899 245 943 348 q 783 91 854 142 q 612 20 711 40 q 361 0 514 0 l 18 0 l 18 118 l 146 118 l 146 421 m 289 421 l 289 118 l 363 118 q 561 134 488 118 q 684 187 634 149 q 766 300 734 224 q 797 479 797 376 q 746 688 797 602 q 615 799 694 773 q 369 825 535 825 l 289 825 l 289 522 l 504 522 l 504 421 l 289 421 z "},"ð":{"ha":796,"x_min":54,"x_max":742,"o":"m 477 893 l 598 943 l 621 890 l 520 848 q 742 361 742 600 q 645 89 742 197 q 393 -19 548 -19 q 146 87 238 -19 q 54 330 54 194 q 95 498 54 421 q 208 625 136 574 q 374 675 280 675 q 552 614 471 675 q 418 806 494 722 l 206 717 l 184 770 l 376 851 q 279 943 340 889 l 418 943 q 477 893 451 918 m 394 551 q 250 490 310 551 q 189 325 189 429 q 246 169 189 233 q 395 105 302 105 q 545 172 484 105 q 605 332 605 239 q 569 457 605 406 q 483 530 534 509 q 394 551 432 551 z "},"Ý":{"ha":897,"x_min":-14,"x_max":911,"o":"m 382 118 l 382 429 l 101 825 l -14 825 l -14 943 l 374 943 l 374 825 l 255 825 l 463 534 l 653 825 l 534 825 l 534 943 l 911 943 l 911 825 l 786 825 l 524 429 l 524 118 l 653 118 l 653 0 l 255 0 l 255 118 l 382 118 m 393 999 l 488 1214 l 675 1214 l 479 999 l 393 999 z "},"ý":{"ha":782,"x_min":12,"x_max":770,"o":"m 336 12 l 121 542 l 12 542 l 12 656 l 336 656 l 336 542 l 258 542 l 399 178 l 538 542 l 452 542 l 452 656 l 770 656 l 770 542 l 672 542 l 347 -294 l 130 -294 l 130 -182 l 258 -182 l 336 12 m 313 743 l 409 958 l 596 958 l 400 743 l 313 743 z "},"Þ":{"ha":796,"x_min":28,"x_max":761,"o":"m 146 118 l 146 825 l 28 825 l 28 943 l 411 943 l 411 825 l 289 825 l 289 763 l 365 763 q 587 742 513 763 q 711 647 661 721 q 761 471 761 572 q 728 327 761 391 q 647 232 695 262 q 537 191 598 201 q 354 180 477 180 l 289 180 l 289 118 l 411 118 l 411 0 l 28 0 l 28 118 l 146 118 m 289 294 l 370 294 q 563 334 509 294 q 616 474 616 374 q 588 580 616 538 q 517 633 559 622 q 377 645 475 645 l 289 645 l 289 294 z "},"þ":{"ha":868,"x_min":9,"x_max":811,"o":"m 130 -180 l 130 829 l 19 829 l 19 943 l 258 943 l 258 553 q 492 667 355 667 q 721 572 630 667 q 811 325 811 477 q 713 73 811 165 q 489 -19 614 -19 q 258 81 359 -19 l 258 -180 l 386 -180 l 386 -294 l 9 -294 l 9 -180 l 130 -180 m 256 319 q 279 215 256 264 q 350 132 301 165 q 465 98 399 98 q 617 160 557 98 q 677 330 677 222 q 614 494 677 435 q 471 553 551 553 q 321 489 386 553 q 256 319 256 425 z "},"×":{"ha":926,"x_min":119,"x_max":807,"o":"m 119 203 l 388 471 l 119 740 l 195 815 l 463 547 l 732 815 l 807 740 l 538 471 l 807 203 l 732 128 l 463 397 l 195 128 l 119 203 z "},"¹":{"ha":463,"x_min":105,"x_max":346,"o":"m 181 528 l 181 883 l 105 883 l 105 949 l 274 949 l 274 528 l 346 528 l 346 460 l 105 460 l 105 528 l 181 528 z "},"²":{"ha":463,"x_min":33,"x_max":411,"o":"m 411 642 l 406 460 l 33 460 q 75 597 33 540 q 231 726 117 654 q 296 778 282 758 q 309 821 309 797 q 224 892 309 892 q 157 869 177 892 q 137 791 137 846 q 138 762 137 779 l 47 762 l 47 787 q 227 958 47 958 q 357 920 309 958 q 405 823 405 882 q 375 743 405 777 q 258 657 345 710 q 132 532 144 587 l 325 532 l 325 642 l 411 642 z "},"³":{"ha":463,"x_min":28,"x_max":427,"o":"m 168 682 l 168 750 q 283 765 256 750 q 309 819 309 779 q 290 871 309 849 q 231 893 271 893 q 146 796 147 893 l 53 796 q 229 958 53 958 q 357 920 313 958 q 401 825 401 882 q 336 718 401 758 q 427 602 427 686 q 371 494 427 534 q 224 453 315 453 q 28 633 28 453 l 117 633 q 232 519 121 519 q 305 541 279 519 q 332 600 332 563 q 196 682 332 682 q 168 682 187 682 z "},"½":{"ha":1346,"x_min":95,"x_max":1072,"o":"m 171 528 l 171 883 l 95 883 l 95 949 l 264 949 l 264 528 l 336 528 l 336 460 l 95 460 l 95 528 l 171 528 m 135 0 l 883 942 l 965 942 l 218 0 l 135 0 m 1072 180 l 1067 0 l 695 0 q 737 137 695 79 q 893 266 779 194 q 957 316 943 297 q 971 360 971 336 q 886 432 971 432 q 818 407 836 432 q 799 332 799 381 q 800 302 799 320 l 709 302 q 709 328 709 317 q 759 457 709 416 q 889 497 810 497 q 1019 459 971 497 q 1067 363 1067 421 q 1037 283 1067 316 q 920 197 1006 250 q 793 71 806 127 l 987 71 l 987 180 l 1072 180 z "},"¼":{"ha":1346,"x_min":105,"x_max":1054,"o":"m 181 528 l 181 883 l 105 883 l 105 949 l 274 949 l 274 528 l 346 528 l 346 460 l 105 460 l 105 528 l 181 528 m 170 0 l 918 942 l 1000 942 l 253 0 l 170 0 m 876 129 l 689 129 q 652 188 680 165 l 887 494 l 965 494 l 965 197 l 1054 197 l 1054 129 l 965 129 l 965 67 l 1016 67 l 1016 0 l 816 0 l 816 67 l 876 67 l 876 129 m 876 197 l 876 360 l 749 197 l 876 197 z "},"¾":{"ha":1346,"x_min":85,"x_max":1158,"o":"m 225 682 l 225 750 q 340 765 313 750 q 366 819 366 779 q 347 871 366 849 q 288 893 328 893 q 203 796 204 893 l 110 796 q 286 958 110 958 q 414 920 370 958 q 458 825 458 882 q 393 718 458 758 q 484 602 484 686 q 428 494 484 534 q 281 453 372 453 q 85 633 85 453 l 174 633 q 289 519 178 519 q 362 541 336 519 q 389 600 389 563 q 253 682 389 682 q 225 682 244 682 m 225 0 l 973 942 l 1055 942 l 307 0 l 225 0 m 980 129 l 793 129 q 756 188 784 165 l 991 494 l 1069 494 l 1069 197 l 1158 197 l 1158 129 l 1069 129 l 1069 67 l 1120 67 l 1120 0 l 920 0 l 920 67 l 980 67 l 980 129 m 980 197 l 980 360 l 854 197 l 980 197 z "},"¯":{"ha":694,"x_min":-8,"x_max":703,"o":"m -8 1117 l 703 1117 l 703 1048 l -8 1048 l -8 1117 z "},"¤":{"ha":926,"x_min":124,"x_max":802,"o":"m 124 739 l 195 811 l 284 722 q 462 781 361 781 q 642 722 559 781 l 731 811 l 802 739 l 713 650 q 772 469 772 566 q 713 293 772 372 l 802 205 l 731 134 l 642 222 q 460 162 557 162 q 284 222 363 162 l 196 134 l 124 205 l 213 293 q 155 476 155 382 q 213 650 155 569 l 124 739 m 463 680 q 316 619 378 680 q 255 471 255 558 q 316 324 255 385 q 463 263 377 263 q 611 325 549 263 q 672 471 672 386 q 611 619 672 558 q 463 680 549 680 z "}}}
